<?xml version="1.0" encoding="utf-8" standalone="no"?>
<!DOCTYPE svg PUBLIC "-//W3C//DTD SVG 1.1//EN"
  "http://www.w3.org/Graphics/SVG/1.1/DTD/svg11.dtd">
<!-- Created with matplotlib (http://matplotlib.org/) -->
<svg height="384pt" version="1.1" viewBox="0 0 492 384" width="492pt" xmlns="http://www.w3.org/2000/svg" xmlns:xlink="http://www.w3.org/1999/xlink">
 <defs>
  <style type="text/css">
*{stroke-linecap:butt;stroke-linejoin:round;stroke-miterlimit:10;}
  </style>
 </defs>
 <g id="figure_1">
  <g id="patch_1">
   <path d="M 0 384.2475 
L 492.72375 384.2475 
L 492.72375 0 
L 0 0 
L 0 384.2475 
z
" style="fill:none;"/>
  </g>
  <g id="axes_1">
   <g id="patch_2">
    <path d="M 41.875 345.6 
L 488.275 345.6 
L 488.275 -0 
L 41.875 -0 
L 41.875 345.6 
z
" style="fill:none;"/>
   </g>
   <g id="PolyCollection_1">
    <path clip-path="url(#pe77ee84ffe)" d="M 78.248333 182.41088 
L 78.248333 191.214451 
L 78.799444 193.216145 
L 79.350556 194.579428 
L 79.901667 195.644277 
L 80.452778 196.52616 
L 81.003889 197.281049 
L 81.555 197.941128 
L 82.106111 198.526921 
L 82.657222 199.052469 
L 83.208333 199.527877 
L 83.759444 199.960709 
L 84.310556 200.356796 
L 84.861667 200.72075 
L 85.412778 201.056292 
L 85.963889 201.366475 
L 86.515 201.653843 
L 87.066111 201.92054 
L 87.617222 202.168394 
L 88.168333 202.398979 
L 88.719444 202.61366 
L 89.270556 202.813633 
L 89.821667 202.99995 
L 90.372778 203.173543 
L 90.923889 203.335244 
L 91.475 203.485797 
L 92.026111 203.625871 
L 92.577222 203.756072 
L 93.128333 203.87695 
L 93.679444 203.989003 
L 94.230556 204.09269 
L 94.781667 204.188428 
L 95.332778 204.276603 
L 95.883889 204.35757 
L 96.435 204.431656 
L 96.986111 204.499166 
L 97.537222 204.560381 
L 98.088333 204.615564 
L 98.639444 204.66496 
L 99.190556 204.708797 
L 99.741667 204.74729 
L 100.292778 204.780638 
L 100.843889 204.80903 
L 101.395 204.832644 
L 101.946111 204.851645 
L 102.497222 204.866193 
L 103.048333 204.876434 
L 103.599444 204.882509 
L 104.150556 204.884552 
L 104.701667 204.882689 
L 105.252778 204.877039 
L 105.803889 204.867715 
L 106.355 204.854827 
L 106.906111 204.838476 
L 107.457222 204.818762 
L 108.008333 204.795777 
L 108.559444 204.76961 
L 109.110556 204.740347 
L 109.661667 204.70807 
L 110.212778 204.672856 
L 110.763889 204.63478 
L 111.315 204.593914 
L 111.866111 204.550326 
L 112.417222 204.504083 
L 112.968333 204.455246 
L 113.519444 204.403878 
L 114.070556 204.350037 
L 114.621667 204.293779 
L 115.172778 204.235157 
L 115.723889 204.174225 
L 116.275 204.111032 
L 116.826111 204.045628 
L 117.377222 203.978057 
L 117.928333 203.908367 
L 118.479444 203.8366 
L 119.030556 203.762798 
L 119.581667 203.687003 
L 120.132778 203.609253 
L 120.683889 203.529586 
L 121.235 203.44804 
L 121.786111 203.364651 
L 122.337222 203.279452 
L 122.888333 203.192477 
L 123.439444 203.103759 
L 123.990556 203.01333 
L 124.541667 202.921219 
L 125.092778 202.827457 
L 125.643889 202.732072 
L 126.195 202.635092 
L 126.746111 202.536545 
L 127.297222 202.436457 
L 127.848333 202.334854 
L 128.399444 202.23176 
L 128.950556 202.1272 
L 129.501667 202.021198 
L 130.052778 201.913776 
L 130.603889 201.804957 
L 131.155 201.694764 
L 131.706111 201.583216 
L 132.257222 201.470335 
L 132.808333 201.356141 
L 133.359444 201.240654 
L 133.910556 201.123893 
L 134.461667 201.005876 
L 135.012778 200.886623 
L 135.563889 200.76615 
L 136.115 200.644476 
L 136.666111 200.521617 
L 137.217222 200.39759 
L 137.768333 200.272411 
L 138.319444 200.146095 
L 138.870556 200.01866 
L 139.421667 199.890119 
L 139.972778 199.760487 
L 140.523889 199.629779 
L 141.075 199.498009 
L 141.626111 199.365191 
L 142.177222 199.231339 
L 142.728333 199.096465 
L 143.279444 198.960583 
L 143.830556 198.823706 
L 144.381667 198.685845 
L 144.932778 198.547013 
L 145.483889 198.407223 
L 146.035 198.266485 
L 146.586111 198.124811 
L 147.137222 197.982212 
L 147.688333 197.8387 
L 148.239444 197.694286 
L 148.790556 197.548979 
L 149.341667 197.40279 
L 149.892778 197.255729 
L 150.443889 197.107807 
L 150.995 196.959033 
L 151.546111 196.809416 
L 152.097222 196.658967 
L 152.648333 196.507694 
L 153.199444 196.355606 
L 153.750556 196.202713 
L 154.301667 196.049023 
L 154.852778 195.894545 
L 155.403889 195.739287 
L 155.955 195.583258 
L 156.506111 195.426465 
L 157.057222 195.268917 
L 157.608333 195.110622 
L 158.159444 194.951586 
L 158.710556 194.791819 
L 159.261667 194.631327 
L 159.812778 194.470117 
L 160.363889 194.308198 
L 160.915 194.145575 
L 161.466111 193.982257 
L 162.017222 193.818249 
L 162.568333 193.653559 
L 163.119444 193.488193 
L 163.670556 193.322158 
L 164.221667 193.155461 
L 164.772778 192.988106 
L 165.323889 192.820102 
L 165.875 192.651454 
L 166.426111 192.482167 
L 166.977222 192.312249 
L 167.528333 192.141704 
L 168.079444 191.970539 
L 168.630556 191.798759 
L 169.181667 191.62637 
L 169.732778 191.453377 
L 170.283889 191.279786 
L 170.835 191.105602 
L 171.386111 190.93083 
L 171.937222 190.755476 
L 172.488333 190.579545 
L 173.039444 190.403041 
L 173.590556 190.22597 
L 174.141667 190.048336 
L 174.692778 189.870145 
L 175.243889 189.691401 
L 175.795 189.512108 
L 176.346111 189.332272 
L 176.897222 189.151897 
L 177.448333 188.970988 
L 177.999444 188.789548 
L 178.550556 188.607582 
L 179.101667 188.425096 
L 179.652778 188.242092 
L 180.203889 188.058575 
L 180.755 187.874549 
L 181.306111 187.690018 
L 181.857222 187.504987 
L 182.408333 187.319459 
L 182.959444 187.133438 
L 183.510556 186.946928 
L 184.061667 186.759933 
L 184.612778 186.572456 
L 185.163889 186.384502 
L 185.715 186.196074 
L 186.266111 186.007175 
L 186.817222 185.81781 
L 187.368333 185.627982 
L 187.919444 185.437693 
L 188.470556 185.246949 
L 189.021667 185.055752 
L 189.572778 184.864105 
L 190.123889 184.672012 
L 190.675 184.479475 
L 191.226111 184.2865 
L 191.777222 184.093088 
L 192.328333 183.899242 
L 192.879444 183.704966 
L 193.430556 183.510263 
L 193.981667 183.315137 
L 194.532778 183.119589 
L 195.083889 182.923623 
L 195.635 182.727242 
L 196.186111 182.530448 
L 196.737222 182.333246 
L 197.288333 182.135637 
L 197.839444 181.937624 
L 198.390556 181.73921 
L 198.941667 181.540398 
L 199.492778 181.341191 
L 200.043889 181.141591 
L 200.595 180.941601 
L 201.146111 180.741223 
L 201.697222 180.540461 
L 202.248333 180.339316 
L 202.799444 180.137791 
L 203.350556 179.93589 
L 203.901667 179.733613 
L 204.452778 179.530964 
L 205.003889 179.327945 
L 205.555 179.124559 
L 206.106111 178.920808 
L 206.657222 178.716693 
L 207.208333 178.512219 
L 207.759444 178.307386 
L 208.310556 178.102197 
L 208.861667 177.896655 
L 209.412778 177.690761 
L 209.963889 177.484518 
L 210.515 177.277929 
L 211.066111 177.070994 
L 211.617222 176.863716 
L 212.168333 176.656098 
L 212.719444 176.448142 
L 213.270556 176.239849 
L 213.821667 176.031222 
L 214.372778 175.822262 
L 214.923889 175.612972 
L 215.475 175.403354 
L 216.026111 175.19341 
L 216.577222 174.983141 
L 217.128333 174.772549 
L 217.679444 174.561637 
L 218.230556 174.350406 
L 218.781667 174.138859 
L 219.332778 173.926996 
L 219.883889 173.714821 
L 220.435 173.502334 
L 220.986111 173.289537 
L 221.537222 173.076433 
L 222.088333 172.863023 
L 222.639444 172.649309 
L 223.190556 172.435292 
L 223.741667 172.220975 
L 224.292778 172.006359 
L 224.843889 171.791445 
L 225.395 171.576235 
L 225.946111 171.360732 
L 226.497222 171.144936 
L 227.048333 170.92885 
L 227.599444 170.712474 
L 228.150556 170.495811 
L 228.701667 170.278862 
L 229.252778 170.061628 
L 229.803889 169.844112 
L 230.355 169.626314 
L 230.906111 169.408237 
L 231.457222 169.189881 
L 232.008333 168.971248 
L 232.559444 168.75234 
L 233.110556 168.533159 
L 233.661667 168.313705 
L 234.212778 168.09398 
L 234.763889 167.873985 
L 235.315 167.653723 
L 235.866111 167.433193 
L 236.417222 167.212399 
L 236.968333 166.991341 
L 237.519444 166.77002 
L 238.070556 166.548438 
L 238.621667 166.326596 
L 239.172778 166.104495 
L 239.723889 165.882138 
L 240.275 165.659524 
L 240.826111 165.436656 
L 241.377222 165.213535 
L 241.928333 164.990162 
L 242.479444 164.766538 
L 243.030556 164.542665 
L 243.581667 164.318543 
L 244.132778 164.094175 
L 244.683889 163.86956 
L 245.235 163.644702 
L 245.786111 163.419599 
L 246.337222 163.194255 
L 246.888333 162.96867 
L 247.439444 162.742845 
L 247.990556 162.516781 
L 248.541667 162.290481 
L 249.092778 162.063943 
L 249.643889 161.837171 
L 250.195 161.610164 
L 250.746111 161.382925 
L 251.297222 161.155454 
L 251.848333 160.927752 
L 252.399444 160.699821 
L 252.950556 160.471661 
L 253.501667 160.243274 
L 254.052778 160.01466 
L 254.603889 159.785821 
L 255.155 159.556758 
L 255.706111 159.327472 
L 256.257222 159.097964 
L 256.808333 158.868234 
L 257.359444 158.638284 
L 257.910556 158.408116 
L 258.461667 158.177729 
L 259.012778 157.947125 
L 259.563889 157.716305 
L 260.115 157.48527 
L 260.666111 157.25402 
L 261.217222 157.022558 
L 261.768333 156.790883 
L 262.319444 156.558997 
L 262.870556 156.326901 
L 263.421667 156.094595 
L 263.972778 155.862081 
L 264.523889 155.62936 
L 265.075 155.396432 
L 265.626111 155.163298 
L 266.177222 154.929959 
L 266.728333 154.696416 
L 267.279444 154.462671 
L 267.830556 154.228723 
L 268.381667 153.994574 
L 268.932778 153.760225 
L 269.483889 153.525676 
L 270.035 153.290929 
L 270.586111 153.055984 
L 271.137222 152.820842 
L 271.688333 152.585504 
L 272.239444 152.34997 
L 272.790556 152.114243 
L 273.341667 151.878321 
L 273.892778 151.642207 
L 274.443889 151.405901 
L 274.995 151.169404 
L 275.546111 150.932716 
L 276.097222 150.695839 
L 276.648333 150.458773 
L 277.199444 150.221519 
L 277.750556 149.984077 
L 278.301667 149.74645 
L 278.852778 149.508636 
L 279.403889 149.270638 
L 279.955 149.032456 
L 280.506111 148.79409 
L 281.057222 148.555542 
L 281.608333 148.316811 
L 282.159444 148.0779 
L 282.710556 147.838808 
L 283.261667 147.599536 
L 283.812778 147.360086 
L 284.363889 147.120457 
L 284.915 146.88065 
L 285.466111 146.640667 
L 286.017222 146.400508 
L 286.568333 146.160173 
L 287.119444 145.919663 
L 287.670556 145.678979 
L 288.221667 145.438122 
L 288.772778 145.197093 
L 289.323889 144.955891 
L 289.875 144.714518 
L 290.426111 144.472974 
L 290.977222 144.23126 
L 291.528333 143.989377 
L 292.079444 143.747325 
L 292.630556 143.505105 
L 293.181667 143.262718 
L 293.732778 143.020164 
L 294.283889 142.777444 
L 294.835 142.534558 
L 295.386111 142.291508 
L 295.937222 142.048293 
L 296.488333 141.804914 
L 297.039444 141.561373 
L 297.590556 141.317669 
L 298.141667 141.073804 
L 298.692778 140.829777 
L 299.243889 140.58559 
L 299.795 140.341243 
L 300.346111 140.096736 
L 300.897222 139.852071 
L 301.448333 139.607247 
L 301.999444 139.362266 
L 302.550556 139.117128 
L 303.101667 138.871833 
L 303.652778 138.626383 
L 304.203889 138.380777 
L 304.755 138.135017 
L 305.306111 137.889102 
L 305.857222 137.643034 
L 306.408333 137.396813 
L 306.959444 137.150439 
L 307.510556 136.903913 
L 308.061667 136.657236 
L 308.612778 136.410408 
L 309.163889 136.16343 
L 309.715 135.916302 
L 310.266111 135.669024 
L 310.817222 135.421598 
L 311.368333 135.174024 
L 311.919444 134.926302 
L 312.470556 134.678433 
L 313.021667 134.430418 
L 313.572778 134.182256 
L 314.123889 133.933948 
L 314.675 133.685496 
L 315.226111 133.436899 
L 315.777222 133.188158 
L 316.328333 132.939273 
L 316.879444 132.690245 
L 317.430556 132.441075 
L 317.981667 132.191763 
L 318.532778 131.942309 
L 319.083889 131.692713 
L 319.635 131.442978 
L 320.186111 131.193102 
L 320.737222 130.943086 
L 321.288333 130.692931 
L 321.839444 130.442637 
L 322.390556 130.192206 
L 322.941667 129.941636 
L 323.492778 129.690929 
L 324.043889 129.440085 
L 324.595 129.189105 
L 325.146111 128.937989 
L 325.697222 128.686737 
L 326.248333 128.43535 
L 326.799444 128.183829 
L 327.350556 127.932174 
L 327.901667 127.680384 
L 328.452778 127.428462 
L 329.003889 127.176407 
L 329.555 126.924219 
L 330.106111 126.671899 
L 330.657222 126.419448 
L 331.208333 126.166866 
L 331.759444 125.914153 
L 332.310556 125.66131 
L 332.861667 125.408337 
L 333.412778 125.155235 
L 333.963889 124.902003 
L 334.515 124.648643 
L 335.066111 124.395155 
L 335.617222 124.14154 
L 336.168333 123.887797 
L 336.719444 123.633927 
L 337.270556 123.37993 
L 337.821667 123.125807 
L 338.372778 122.871559 
L 338.923889 122.617185 
L 339.475 122.362687 
L 340.026111 122.108064 
L 340.577222 121.853317 
L 341.128333 121.598446 
L 341.679444 121.343451 
L 342.230556 121.088334 
L 342.781667 120.833094 
L 343.332778 120.577732 
L 343.883889 120.322248 
L 344.435 120.066643 
L 344.986111 119.810917 
L 345.537222 119.55507 
L 346.088333 119.299102 
L 346.639444 119.043015 
L 347.190556 118.786808 
L 347.741667 118.530482 
L 348.292778 118.274037 
L 348.843889 118.017474 
L 349.395 117.760792 
L 349.946111 117.503993 
L 350.497222 117.247076 
L 351.048333 116.990043 
L 351.599444 116.732892 
L 352.150556 116.475625 
L 352.701667 116.218243 
L 353.252778 115.960744 
L 353.803889 115.703131 
L 354.355 115.445402 
L 354.906111 115.187559 
L 355.457222 114.929601 
L 356.008333 114.67153 
L 356.559444 114.413345 
L 357.110556 114.155047 
L 357.661667 113.896636 
L 358.212778 113.638112 
L 358.763889 113.379476 
L 359.315 113.120728 
L 359.866111 112.861868 
L 360.417222 112.602898 
L 360.968333 112.343816 
L 361.519444 112.084624 
L 362.070556 111.825321 
L 362.621667 111.565909 
L 363.172778 111.306386 
L 363.723889 111.046755 
L 364.275 110.787014 
L 364.826111 110.527165 
L 365.377222 110.267207 
L 365.928333 110.007142 
L 366.479444 109.746968 
L 367.030556 109.486687 
L 367.581667 109.226299 
L 368.132778 108.965804 
L 368.683889 108.705202 
L 369.235 108.444495 
L 369.786111 108.183681 
L 370.337222 107.922762 
L 370.888333 107.661737 
L 371.439444 107.400607 
L 371.990556 107.139373 
L 372.541667 106.878034 
L 373.092778 106.616591 
L 373.643889 106.355044 
L 374.195 106.093393 
L 374.746111 105.83164 
L 375.297222 105.569783 
L 375.848333 105.307823 
L 376.399444 105.045761 
L 376.950556 104.783597 
L 377.501667 104.521331 
L 378.052778 104.258964 
L 378.603889 103.996495 
L 379.155 103.733925 
L 379.706111 103.471254 
L 380.257222 103.208483 
L 380.808333 102.945612 
L 381.359444 102.68264 
L 381.910556 102.41957 
L 382.461667 102.156399 
L 383.012778 101.89313 
L 383.563889 101.629762 
L 384.115 101.366295 
L 384.666111 101.10273 
L 385.217222 100.839066 
L 385.768333 100.575305 
L 386.319444 100.311447 
L 386.870556 100.047491 
L 387.421667 99.783438 
L 387.972778 99.519289 
L 388.523889 99.255043 
L 389.075 98.990701 
L 389.626111 98.726262 
L 390.177222 98.461729 
L 390.728333 98.197099 
L 391.279444 97.932375 
L 391.830556 97.667555 
L 392.381667 97.402641 
L 392.932778 97.137632 
L 393.483889 96.872529 
L 394.035 96.607332 
L 394.586111 96.342042 
L 395.137222 96.076657 
L 395.688333 95.81118 
L 396.239444 95.54561 
L 396.790556 95.279947 
L 397.341667 95.014191 
L 397.892778 94.748343 
L 398.443889 94.482403 
L 398.995 94.216372 
L 399.546111 93.950248 
L 400.097222 93.684034 
L 400.648333 93.417728 
L 401.199444 93.151331 
L 401.750556 92.884844 
L 402.301667 92.618267 
L 402.852778 92.351599 
L 403.403889 92.084841 
L 403.955 91.817994 
L 404.506111 91.551057 
L 405.057222 91.284031 
L 405.608333 91.016916 
L 406.159444 90.749712 
L 406.710556 90.482419 
L 407.261667 90.215039 
L 407.812778 89.94757 
L 408.363889 89.680013 
L 408.915 89.412368 
L 409.466111 89.144636 
L 410.017222 88.876817 
L 410.568333 88.60891 
L 411.119444 88.340917 
L 411.670556 88.072837 
L 412.221667 87.804671 
L 412.772778 87.536419 
L 413.323889 87.26808 
L 413.875 86.999656 
L 414.426111 86.731146 
L 414.977222 86.462551 
L 415.528333 86.193871 
L 416.079444 85.925106 
L 416.630556 85.656256 
L 417.181667 85.387322 
L 417.732778 85.118304 
L 418.283889 84.849201 
L 418.835 84.580014 
L 419.386111 84.310744 
L 419.937222 84.04139 
L 420.488333 83.771953 
L 421.039444 83.502433 
L 421.590556 83.23283 
L 422.141667 82.963145 
L 422.692778 82.693377 
L 423.243889 82.423526 
L 423.795 82.153594 
L 424.346111 81.883579 
L 424.897222 81.613483 
L 425.448333 81.343306 
L 425.999444 81.073047 
L 426.550556 80.802707 
L 427.101667 80.532286 
L 427.652778 80.261784 
L 428.203889 79.991202 
L 428.755 79.720539 
L 429.306111 79.449796 
L 429.857222 79.178974 
L 430.408333 78.908071 
L 430.959444 78.637089 
L 431.510556 78.366028 
L 432.061667 78.094887 
L 432.612778 77.823667 
L 433.163889 77.552368 
L 433.715 77.280991 
L 434.266111 77.009535 
L 434.817222 76.738001 
L 435.368333 76.466389 
L 435.919444 76.194699 
L 436.470556 75.922931 
L 437.021667 75.651085 
L 437.572778 75.379162 
L 438.123889 75.107162 
L 438.675 74.835085 
L 439.226111 74.56293 
L 439.777222 74.2907 
L 440.328333 74.018392 
L 440.879444 73.746009 
L 441.430556 73.473549 
L 441.981667 73.201013 
L 442.532778 72.928401 
L 443.083889 72.655713 
L 443.635 72.382951 
L 444.186111 72.110112 
L 444.737222 71.837199 
L 445.288333 71.564211 
L 445.839444 71.291147 
L 446.390556 71.01801 
L 446.941667 70.744797 
L 447.492778 70.471511 
L 448.043889 70.19815 
L 448.595 69.924715 
L 449.146111 69.651206 
L 449.697222 69.377624 
L 450.248333 69.103969 
L 450.799444 68.83024 
L 451.350556 68.556437 
L 451.901667 68.282562 
L 452.452778 68.008614 
L 453.003889 67.734593 
L 453.555 67.4605 
L 454.106111 67.186335 
L 454.657222 66.912097 
L 455.208333 66.637787 
L 455.759444 66.363405 
L 456.310556 66.088952 
L 456.861667 65.814427 
L 457.412778 65.53983 
L 457.963889 65.265163 
L 458.515 64.990424 
L 459.066111 64.715614 
L 459.617222 64.440734 
L 460.168333 64.165783 
L 460.719444 63.890761 
L 461.270556 63.615669 
L 461.821667 63.340507 
L 462.372778 63.065274 
L 462.923889 62.789972 
L 463.475 62.514601 
L 464.026111 62.239159 
L 464.577222 61.963648 
L 465.128333 61.688068 
L 465.679444 61.412419 
L 466.230556 61.136701 
L 466.781667 60.860913 
L 467.332778 60.585058 
L 467.883889 60.309133 
L 468.435 60.033141 
L 468.986111 59.757079 
L 469.537222 59.48095 
L 470.088333 59.204753 
L 470.639444 58.928488 
L 471.190556 58.652156 
L 471.741667 58.375755 
L 472.292778 58.099288 
L 472.843889 57.822753 
L 473.395 57.546151 
L 473.946111 57.269482 
L 474.497222 56.992746 
L 475.048333 56.715944 
L 475.599444 56.439075 
L 476.150556 56.162139 
L 476.701667 55.885137 
L 477.252778 55.608069 
L 477.803889 55.330935 
L 478.355 55.053735 
L 478.906111 54.77647 
L 479.457222 54.499139 
L 480.008333 54.221742 
L 480.559444 53.94428 
L 481.110556 53.666753 
L 481.661667 53.38916 
L 482.212778 53.111503 
L 482.763889 52.833781 
L 483.315 52.555994 
L 483.866111 52.278143 
L 484.417222 52.000228 
L 484.968333 51.722248 
L 485.519444 51.444204 
L 486.070556 51.166095 
L 486.621667 50.887924 
L 487.172778 50.609688 
L 487.723889 50.331388 
L 488.275 50.053026 
L 488.275 -231.135048 
L 488.275 -231.135048 
L 487.723889 -230.667837 
L 487.172778 -230.200562 
L 486.621667 -229.733223 
L 486.070556 -229.265821 
L 485.519444 -228.798354 
L 484.968333 -228.330824 
L 484.417222 -227.86323 
L 483.866111 -227.395571 
L 483.315 -226.927848 
L 482.763889 -226.46006 
L 482.212778 -225.992208 
L 481.661667 -225.524291 
L 481.110556 -225.056308 
L 480.559444 -224.588261 
L 480.008333 -224.120149 
L 479.457222 -223.651971 
L 478.906111 -223.183728 
L 478.355 -222.715419 
L 477.803889 -222.247045 
L 477.252778 -221.778604 
L 476.701667 -221.310098 
L 476.150556 -220.841525 
L 475.599444 -220.372886 
L 475.048333 -219.904181 
L 474.497222 -219.435409 
L 473.946111 -218.96657 
L 473.395 -218.497665 
L 472.843889 -218.028693 
L 472.292778 -217.559653 
L 471.741667 -217.090546 
L 471.190556 -216.621372 
L 470.639444 -216.15213 
L 470.088333 -215.682821 
L 469.537222 -215.213444 
L 468.986111 -214.743998 
L 468.435 -214.274485 
L 467.883889 -213.804903 
L 467.332778 -213.335253 
L 466.781667 -212.865535 
L 466.230556 -212.395747 
L 465.679444 -211.925891 
L 465.128333 -211.455966 
L 464.577222 -210.985972 
L 464.026111 -210.515908 
L 463.475 -210.045775 
L 462.923889 -209.575573 
L 462.372778 -209.105301 
L 461.821667 -208.634958 
L 461.270556 -208.164546 
L 460.719444 -207.694064 
L 460.168333 -207.223511 
L 459.617222 -206.752888 
L 459.066111 -206.282194 
L 458.515 -205.811429 
L 457.963889 -205.340594 
L 457.412778 -204.869687 
L 456.861667 -204.398709 
L 456.310556 -203.92766 
L 455.759444 -203.456539 
L 455.208333 -202.985346 
L 454.657222 -202.514081 
L 454.106111 -202.042745 
L 453.555 -201.571336 
L 453.003889 -201.099855 
L 452.452778 -200.628301 
L 451.901667 -200.156675 
L 451.350556 -199.684975 
L 450.799444 -199.213203 
L 450.248333 -198.741358 
L 449.697222 -198.269439 
L 449.146111 -197.797447 
L 448.595 -197.325381 
L 448.043889 -196.853242 
L 447.492778 -196.381028 
L 446.941667 -195.90874 
L 446.390556 -195.436378 
L 445.839444 -194.963941 
L 445.288333 -194.49143 
L 444.737222 -194.018844 
L 444.186111 -193.546183 
L 443.635 -193.073447 
L 443.083889 -192.600636 
L 442.532778 -192.127749 
L 441.981667 -191.654786 
L 441.430556 -191.181748 
L 440.879444 -190.708633 
L 440.328333 -190.235442 
L 439.777222 -189.762175 
L 439.226111 -189.288832 
L 438.675 -188.815412 
L 438.123889 -188.341914 
L 437.572778 -187.86834 
L 437.021667 -187.394689 
L 436.470556 -186.92096 
L 435.919444 -186.447154 
L 435.368333 -185.973269 
L 434.817222 -185.499307 
L 434.266111 -185.025267 
L 433.715 -184.551148 
L 433.163889 -184.076951 
L 432.612778 -183.602676 
L 432.061667 -183.128321 
L 431.510556 -182.653887 
L 430.959444 -182.179374 
L 430.408333 -181.704782 
L 429.857222 -181.23011 
L 429.306111 -180.755359 
L 428.755 -180.280527 
L 428.203889 -179.805615 
L 427.652778 -179.330623 
L 427.101667 -178.85555 
L 426.550556 -178.380397 
L 425.999444 -177.905162 
L 425.448333 -177.429847 
L 424.897222 -176.95445 
L 424.346111 -176.478972 
L 423.795 -176.003412 
L 423.243889 -175.52777 
L 422.692778 -175.052046 
L 422.141667 -174.57624 
L 421.590556 -174.100351 
L 421.039444 -173.62438 
L 420.488333 -173.148325 
L 419.937222 -172.672188 
L 419.386111 -172.195967 
L 418.835 -171.719663 
L 418.283889 -171.243275 
L 417.732778 -170.766803 
L 417.181667 -170.290248 
L 416.630556 -169.813607 
L 416.079444 -169.336883 
L 415.528333 -168.860073 
L 414.977222 -168.383179 
L 414.426111 -167.9062 
L 413.875 -167.429135 
L 413.323889 -166.951985 
L 412.772778 -166.474749 
L 412.221667 -165.997427 
L 411.670556 -165.520019 
L 411.119444 -165.042524 
L 410.568333 -164.564943 
L 410.017222 -164.087275 
L 409.466111 -163.60952 
L 408.915 -163.131677 
L 408.363889 -162.653748 
L 407.812778 -162.17573 
L 407.261667 -161.697625 
L 406.710556 -161.219431 
L 406.159444 -160.741149 
L 405.608333 -160.262779 
L 405.057222 -159.78432 
L 404.506111 -159.305771 
L 403.955 -158.827134 
L 403.403889 -158.348407 
L 402.852778 -157.86959 
L 402.301667 -157.390683 
L 401.750556 -156.911686 
L 401.199444 -156.432599 
L 400.648333 -155.953421 
L 400.097222 -155.474153 
L 399.546111 -154.994793 
L 398.995 -154.515342 
L 398.443889 -154.035799 
L 397.892778 -153.556164 
L 397.341667 -153.076438 
L 396.790556 -152.596619 
L 396.239444 -152.116708 
L 395.688333 -151.636704 
L 395.137222 -151.156607 
L 394.586111 -150.676416 
L 394.035 -150.196133 
L 393.483889 -149.715755 
L 392.932778 -149.235284 
L 392.381667 -148.754718 
L 391.830556 -148.274058 
L 391.279444 -147.793303 
L 390.728333 -147.312453 
L 390.177222 -146.831508 
L 389.626111 -146.350468 
L 389.075 -145.869332 
L 388.523889 -145.388099 
L 387.972778 -144.906771 
L 387.421667 -144.425346 
L 386.870556 -143.943824 
L 386.319444 -143.462206 
L 385.768333 -142.98049 
L 385.217222 -142.498676 
L 384.666111 -142.016765 
L 384.115 -141.534756 
L 383.563889 -141.052648 
L 383.012778 -140.570442 
L 382.461667 -140.088137 
L 381.910556 -139.605733 
L 381.359444 -139.12323 
L 380.808333 -138.640627 
L 380.257222 -138.157924 
L 379.706111 -137.67512 
L 379.155 -137.192217 
L 378.603889 -136.709212 
L 378.052778 -136.226107 
L 377.501667 -135.7429 
L 376.950556 -135.259591 
L 376.399444 -134.776181 
L 375.848333 -134.292669 
L 375.297222 -133.809054 
L 374.746111 -133.325336 
L 374.195 -132.841516 
L 373.643889 -132.357592 
L 373.092778 -131.873564 
L 372.541667 -131.389433 
L 371.990556 -130.905197 
L 371.439444 -130.420857 
L 370.888333 -129.936413 
L 370.337222 -129.451863 
L 369.786111 -128.967208 
L 369.235 -128.482447 
L 368.683889 -127.997581 
L 368.132778 -127.512608 
L 367.581667 -127.027528 
L 367.030556 -126.542342 
L 366.479444 -126.057049 
L 365.928333 -125.571648 
L 365.377222 -125.086139 
L 364.826111 -124.600522 
L 364.275 -124.114797 
L 363.723889 -123.628963 
L 363.172778 -123.14302 
L 362.621667 -122.656968 
L 362.070556 -122.170806 
L 361.519444 -121.684535 
L 360.968333 -121.198152 
L 360.417222 -120.71166 
L 359.866111 -120.225056 
L 359.315 -119.738341 
L 358.763889 -119.251515 
L 358.212778 -118.764576 
L 357.661667 -118.277526 
L 357.110556 -117.790362 
L 356.559444 -117.303086 
L 356.008333 -116.815697 
L 355.457222 -116.328194 
L 354.906111 -115.840577 
L 354.355 -115.352846 
L 353.803889 -114.865 
L 353.252778 -114.377039 
L 352.701667 -113.888963 
L 352.150556 -113.400772 
L 351.599444 -112.912464 
L 351.048333 -112.42404 
L 350.497222 -111.935499 
L 349.946111 -111.446842 
L 349.395 -110.958066 
L 348.843889 -110.469174 
L 348.292778 -109.980162 
L 347.741667 -109.491033 
L 347.190556 -109.001785 
L 346.639444 -108.512417 
L 346.088333 -108.02293 
L 345.537222 -107.533323 
L 344.986111 -107.043596 
L 344.435 -106.553748 
L 343.883889 -106.063778 
L 343.332778 -105.573688 
L 342.781667 -105.083476 
L 342.230556 -104.593141 
L 341.679444 -104.102684 
L 341.128333 -103.612104 
L 340.577222 -103.1214 
L 340.026111 -102.630573 
L 339.475 -102.139622 
L 338.923889 -101.648546 
L 338.372778 -101.157345 
L 337.821667 -100.666019 
L 337.270556 -100.174567 
L 336.719444 -99.682989 
L 336.168333 -99.191285 
L 335.617222 -98.699454 
L 335.066111 -98.207495 
L 334.515 -97.715409 
L 333.963889 -97.223194 
L 333.412778 -96.730851 
L 332.861667 -96.238379 
L 332.310556 -95.745778 
L 331.759444 -95.253046 
L 331.208333 -94.760185 
L 330.657222 -94.267193 
L 330.106111 -93.774069 
L 329.555 -93.280815 
L 329.003889 -92.787428 
L 328.452778 -92.293909 
L 327.901667 -91.800257 
L 327.350556 -91.306472 
L 326.799444 -90.812553 
L 326.248333 -90.3185 
L 325.697222 -89.824312 
L 325.146111 -89.329989 
L 324.595 -88.835531 
L 324.043889 -88.340937 
L 323.492778 -87.846206 
L 322.941667 -87.351339 
L 322.390556 -86.856334 
L 321.839444 -86.361192 
L 321.288333 -85.865911 
L 320.737222 -85.370491 
L 320.186111 -84.874932 
L 319.635 -84.379234 
L 319.083889 -83.883395 
L 318.532778 -83.387416 
L 317.981667 -82.891296 
L 317.430556 -82.395034 
L 316.879444 -81.89863 
L 316.328333 -81.402083 
L 315.777222 -80.905394 
L 315.226111 -80.40856 
L 314.675 -79.911583 
L 314.123889 -79.414461 
L 313.572778 -78.917194 
L 313.021667 -78.419781 
L 312.470556 -77.922223 
L 311.919444 -77.424517 
L 311.368333 -76.926665 
L 310.817222 -76.428665 
L 310.266111 -75.930516 
L 309.715 -75.432219 
L 309.163889 -74.933773 
L 308.612778 -74.435177 
L 308.061667 -73.93643 
L 307.510556 -73.437533 
L 306.959444 -72.938484 
L 306.408333 -72.439284 
L 305.857222 -71.939931 
L 305.306111 -71.440424 
L 304.755 -70.940765 
L 304.203889 -70.440951 
L 303.652778 -69.940982 
L 303.101667 -69.440858 
L 302.550556 -68.940578 
L 301.999444 -68.440142 
L 301.448333 -67.939549 
L 300.897222 -67.438798 
L 300.346111 -66.937889 
L 299.795 -66.436821 
L 299.243889 -65.935594 
L 298.692778 -65.434206 
L 298.141667 -64.932659 
L 297.590556 -64.43095 
L 297.039444 -63.929079 
L 296.488333 -63.427046 
L 295.937222 -62.92485 
L 295.386111 -62.42249 
L 294.835 -61.919967 
L 294.283889 -61.417278 
L 293.732778 -60.914424 
L 293.181667 -60.411403 
L 292.630556 -59.908216 
L 292.079444 -59.404862 
L 291.528333 -58.901339 
L 290.977222 -58.397648 
L 290.426111 -57.893787 
L 289.875 -57.389757 
L 289.323889 -56.885555 
L 288.772778 -56.381183 
L 288.221667 -55.876638 
L 287.670556 -55.371921 
L 287.119444 -54.86703 
L 286.568333 -54.361965 
L 286.017222 -53.856726 
L 285.466111 -53.351311 
L 284.915 -52.84572 
L 284.363889 -52.339952 
L 283.812778 -51.834006 
L 283.261667 -51.327882 
L 282.710556 -50.82158 
L 282.159444 -50.315097 
L 281.608333 -49.808434 
L 281.057222 -49.30159 
L 280.506111 -48.794564 
L 279.955 -48.287356 
L 279.403889 -47.779964 
L 278.852778 -47.272387 
L 278.301667 -46.764626 
L 277.750556 -46.25668 
L 277.199444 -45.748546 
L 276.648333 -45.240226 
L 276.097222 -44.731718 
L 275.546111 -44.22302 
L 274.995 -43.714134 
L 274.443889 -43.205057 
L 273.892778 -42.695788 
L 273.341667 -42.186328 
L 272.790556 -41.676675 
L 272.239444 -41.166829 
L 271.688333 -40.656788 
L 271.137222 -40.146551 
L 270.586111 -39.636119 
L 270.035 -39.12549 
L 269.483889 -38.614663 
L 268.932778 -38.103637 
L 268.381667 -37.592412 
L 267.830556 -37.080986 
L 267.279444 -36.569359 
L 266.728333 -36.057531 
L 266.177222 -35.545499 
L 265.626111 -35.033263 
L 265.075 -34.520822 
L 264.523889 -34.008176 
L 263.972778 -33.495323 
L 263.421667 -32.982263 
L 262.870556 -32.468994 
L 262.319444 -31.955516 
L 261.768333 -31.441828 
L 261.217222 -30.927928 
L 260.666111 -30.413816 
L 260.115 -29.899491 
L 259.563889 -29.384952 
L 259.012778 -28.870197 
L 258.461667 -28.355227 
L 257.910556 -27.840039 
L 257.359444 -27.324634 
L 256.808333 -26.809009 
L 256.257222 -26.293164 
L 255.706111 -25.777098 
L 255.155 -25.26081 
L 254.603889 -24.744299 
L 254.052778 -24.227563 
L 253.501667 -23.710602 
L 252.950556 -23.193415 
L 252.399444 -22.676001 
L 251.848333 -22.158358 
L 251.297222 -21.640485 
L 250.746111 -21.122382 
L 250.195 -20.604047 
L 249.643889 -20.085479 
L 249.092778 -19.566677 
L 248.541667 -19.047639 
L 247.990556 -18.528366 
L 247.439444 -18.008855 
L 246.888333 -17.489106 
L 246.337222 -16.969116 
L 245.786111 -16.448886 
L 245.235 -15.928414 
L 244.683889 -15.407698 
L 244.132778 -14.886738 
L 243.581667 -14.365532 
L 243.030556 -13.84408 
L 242.479444 -13.322379 
L 241.928333 -12.800428 
L 241.377222 -12.278227 
L 240.826111 -11.755774 
L 240.275 -11.233067 
L 239.723889 -10.710106 
L 239.172778 -10.186889 
L 238.621667 -9.663415 
L 238.070556 -9.139683 
L 237.519444 -8.615691 
L 236.968333 -8.091437 
L 236.417222 -7.566921 
L 235.866111 -7.042141 
L 235.315 -6.517096 
L 234.763889 -5.991784 
L 234.212778 -5.466204 
L 233.661667 -4.940355 
L 233.110556 -4.414234 
L 232.559444 -3.887842 
L 232.008333 -3.361175 
L 231.457222 -2.834233 
L 230.906111 -2.307015 
L 230.355 -1.779518 
L 229.803889 -1.251741 
L 229.252778 -0.723683 
L 228.701667 -0.195342 
L 228.150556 0.333283 
L 227.599444 0.862194 
L 227.048333 1.391393 
L 226.497222 1.920881 
L 225.946111 2.450659 
L 225.395 2.98073 
L 224.843889 3.511095 
L 224.292778 4.041756 
L 223.741667 4.572714 
L 223.190556 5.103971 
L 222.639444 5.635529 
L 222.088333 6.167389 
L 221.537222 6.699554 
L 220.986111 7.232024 
L 220.435 7.764802 
L 219.883889 8.297889 
L 219.332778 8.831288 
L 218.781667 9.365 
L 218.230556 9.899027 
L 217.679444 10.433371 
L 217.128333 10.968033 
L 216.577222 11.503016 
L 216.026111 12.038321 
L 215.475 12.573951 
L 214.923889 13.109907 
L 214.372778 13.646192 
L 213.821667 14.182806 
L 213.270556 14.719754 
L 212.719444 15.257035 
L 212.168333 15.794653 
L 211.617222 16.332609 
L 211.066111 16.870906 
L 210.515 17.409546 
L 209.963889 17.948531 
L 209.412778 18.487862 
L 208.861667 19.027543 
L 208.310556 19.567575 
L 207.759444 20.107961 
L 207.208333 20.648702 
L 206.657222 21.189802 
L 206.106111 21.731262 
L 205.555 22.273085 
L 205.003889 22.815273 
L 204.452778 23.357829 
L 203.901667 23.900754 
L 203.350556 24.444052 
L 202.799444 24.987725 
L 202.248333 25.531775 
L 201.697222 26.076204 
L 201.146111 26.621016 
L 200.595 27.166213 
L 200.043889 27.711797 
L 199.492778 28.257772 
L 198.941667 28.804139 
L 198.390556 29.350901 
L 197.839444 29.898062 
L 197.288333 30.445624 
L 196.737222 30.993589 
L 196.186111 31.541961 
L 195.635 32.090742 
L 195.083889 32.639935 
L 194.532778 33.189544 
L 193.981667 33.73957 
L 193.430556 34.290018 
L 192.879444 34.840889 
L 192.328333 35.392188 
L 191.777222 35.943917 
L 191.226111 36.496079 
L 190.675 37.048678 
L 190.123889 37.601716 
L 189.572778 38.155197 
L 189.021667 38.709125 
L 188.470556 39.263502 
L 187.919444 39.818332 
L 187.368333 40.373618 
L 186.817222 40.929364 
L 186.266111 41.485573 
L 185.715 42.042249 
L 185.163889 42.599395 
L 184.612778 43.157015 
L 184.061667 43.715113 
L 183.510556 44.273693 
L 182.959444 44.832757 
L 182.408333 45.392311 
L 181.857222 45.952357 
L 181.306111 46.5129 
L 180.755 47.073944 
L 180.203889 47.635492 
L 179.652778 48.19755 
L 179.101667 48.76012 
L 178.550556 49.323207 
L 177.999444 49.886816 
L 177.448333 50.450951 
L 176.897222 51.015616 
L 176.346111 51.580815 
L 175.795 52.146554 
L 175.243889 52.712836 
L 174.692778 53.279666 
L 174.141667 53.847049 
L 173.590556 54.41499 
L 173.039444 54.983493 
L 172.488333 55.552564 
L 171.937222 56.122207 
L 171.386111 56.692427 
L 170.835 57.26323 
L 170.283889 57.83462 
L 169.732778 58.406603 
L 169.181667 58.979185 
L 168.630556 59.55237 
L 168.079444 60.126165 
L 167.528333 60.700574 
L 166.977222 61.275604 
L 166.426111 61.851259 
L 165.875 62.427547 
L 165.323889 63.004473 
L 164.772778 63.582043 
L 164.221667 64.160264 
L 163.670556 64.73914 
L 163.119444 65.31868 
L 162.568333 65.898888 
L 162.017222 66.479773 
L 161.466111 67.06134 
L 160.915 67.643595 
L 160.363889 68.226547 
L 159.812778 68.810202 
L 159.261667 69.394567 
L 158.710556 69.97965 
L 158.159444 70.565456 
L 157.608333 71.151996 
L 157.057222 71.739274 
L 156.506111 72.327301 
L 155.955 72.916082 
L 155.403889 73.505627 
L 154.852778 74.095944 
L 154.301667 74.68704 
L 153.750556 75.278925 
L 153.199444 75.871606 
L 152.648333 76.465093 
L 152.097222 77.059394 
L 151.546111 77.654519 
L 150.995 78.250477 
L 150.443889 78.847277 
L 149.892778 79.44493 
L 149.341667 80.043443 
L 148.790556 80.642829 
L 148.239444 81.243096 
L 147.688333 81.844256 
L 147.137222 82.446318 
L 146.586111 83.049294 
L 146.035 83.653195 
L 145.483889 84.258031 
L 144.932778 84.863815 
L 144.381667 85.470558 
L 143.830556 86.078271 
L 143.279444 86.686968 
L 142.728333 87.296661 
L 142.177222 87.907361 
L 141.626111 88.519083 
L 141.075 89.13184 
L 140.523889 89.745644 
L 139.972778 90.360511 
L 139.421667 90.976454 
L 138.870556 91.593487 
L 138.319444 92.211626 
L 137.768333 92.830885 
L 137.217222 93.45128 
L 136.666111 94.072827 
L 136.115 94.695543 
L 135.563889 95.319443 
L 135.012778 95.944545 
L 134.461667 96.570865 
L 133.910556 97.198423 
L 133.359444 97.827237 
L 132.808333 98.457324 
L 132.257222 99.088705 
L 131.706111 99.721398 
L 131.155 100.355425 
L 130.603889 100.990805 
L 130.052778 101.627561 
L 129.501667 102.265714 
L 128.950556 102.905286 
L 128.399444 103.5463 
L 127.848333 104.188781 
L 127.297222 104.832752 
L 126.746111 105.478238 
L 126.195 106.125265 
L 125.643889 106.77386 
L 125.092778 107.42405 
L 124.541667 108.075862 
L 123.990556 108.729326 
L 123.439444 109.38447 
L 122.888333 110.041327 
L 122.337222 110.699927 
L 121.786111 111.360302 
L 121.235 112.022487 
L 120.683889 112.686516 
L 120.132778 113.352424 
L 119.581667 114.020248 
L 119.030556 114.690027 
L 118.479444 115.3618 
L 117.928333 116.035607 
L 117.377222 116.711491 
L 116.826111 117.389495 
L 116.275 118.069665 
L 115.723889 118.752046 
L 115.172778 119.436689 
L 114.621667 120.123642 
L 114.070556 120.812958 
L 113.519444 121.504691 
L 112.968333 122.198897 
L 112.417222 122.895635 
L 111.866111 123.594966 
L 111.315 124.296952 
L 110.763889 125.001661 
L 110.212778 125.709159 
L 109.661667 126.41952 
L 109.110556 127.132817 
L 108.559444 127.849129 
L 108.008333 128.568536 
L 107.457222 129.291126 
L 106.906111 130.016985 
L 106.355 130.746209 
L 105.803889 131.478895 
L 105.252778 132.215147 
L 104.701667 132.955071 
L 104.150556 133.698782 
L 103.599444 134.446399 
L 103.048333 135.198049 
L 102.497222 135.953865 
L 101.946111 136.713986 
L 101.395 137.478562 
L 100.843889 138.24775 
L 100.292778 139.021717 
L 99.741667 139.80064 
L 99.190556 140.584706 
L 98.639444 141.374118 
L 98.088333 142.169088 
L 97.537222 142.969846 
L 96.986111 143.776635 
L 96.435 144.589719 
L 95.883889 145.40938 
L 95.332778 146.235921 
L 94.781667 147.069671 
L 94.230556 147.910983 
L 93.679444 148.760244 
L 93.128333 149.617872 
L 92.577222 150.484324 
L 92.026111 151.3601 
L 91.475 152.245748 
L 90.923889 153.141876 
L 90.372778 154.049151 
L 89.821667 154.968319 
L 89.270556 155.90021 
L 88.719444 156.845757 
L 88.168333 157.806013 
L 87.617222 158.782172 
L 87.066111 159.7756 
L 86.515 160.787871 
L 85.963889 161.820814 
L 85.412778 162.876572 
L 84.861667 163.957688 
L 84.310556 165.067217 
L 83.759444 166.208878 
L 83.208333 167.387284 
L 82.657222 168.608267 
L 82.106111 169.879389 
L 81.555 171.210756 
L 81.003889 172.616409 
L 80.452778 174.116873 
L 79.901667 175.744331 
L 79.350556 177.554754 
L 78.799444 179.663611 
L 78.248333 182.41088 
z
" style="fill:#008000;fill-opacity:0.15;stroke:#008000;stroke-opacity:0.15;stroke-width:1.5;"/>
   </g>
   <g id="PolyCollection_2">
    <path clip-path="url(#pe77ee84ffe)" d="M 78.248333 182.913858 
L 78.248333 191.717429 
L 78.799444 194.408135 
L 79.350556 196.460428 
L 79.901667 198.214288 
L 80.452778 199.785183 
L 81.003889 201.229084 
L 81.555 202.578174 
L 82.106111 203.852978 
L 82.657222 205.067537 
L 83.208333 206.231956 
L 83.759444 207.353799 
L 84.310556 208.438897 
L 84.861667 209.491862 
L 85.412778 210.516416 
L 85.963889 211.51561 
L 86.515 212.49199 
L 87.066111 213.447698 
L 87.617222 214.384563 
L 88.168333 215.304159 
L 88.719444 216.207851 
L 89.270556 217.096835 
L 89.821667 217.972163 
L 90.372778 218.834768 
L 90.923889 219.68548 
L 91.475 220.525044 
L 92.026111 221.354129 
L 92.577222 222.173342 
L 93.128333 222.98323 
L 93.679444 223.784295 
L 94.230556 224.576993 
L 94.781667 225.361742 
L 95.332778 226.138929 
L 95.883889 226.908907 
L 96.435 227.672004 
L 96.986111 228.428525 
L 97.537222 229.178751 
L 98.088333 229.922946 
L 98.639444 230.661353 
L 99.190556 231.394201 
L 99.741667 232.121705 
L 100.292778 232.844064 
L 100.843889 233.561468 
L 101.395 234.274092 
L 101.946111 234.982105 
L 102.497222 235.685664 
L 103.048333 236.384916 
L 103.599444 237.080003 
L 104.150556 237.771057 
L 104.701667 238.458205 
L 105.252778 239.141566 
L 105.803889 239.821253 
L 106.355 240.497376 
L 106.906111 241.170037 
L 107.457222 241.839334 
L 108.008333 242.50536 
L 108.559444 243.168204 
L 109.110556 243.827953 
L 109.661667 244.484687 
L 110.212778 245.138484 
L 110.763889 245.789419 
L 111.315 246.437564 
L 111.866111 247.082988 
L 112.417222 247.725755 
L 112.968333 248.36593 
L 113.519444 249.003573 
L 114.070556 249.638743 
L 114.621667 250.271496 
L 115.172778 250.901886 
L 115.723889 251.529965 
L 116.275 252.155783 
L 116.826111 252.77939 
L 117.377222 253.400831 
L 117.928333 254.020151 
L 118.479444 254.637396 
L 119.030556 255.252605 
L 119.581667 255.865821 
L 120.132778 256.477082 
L 120.683889 257.086427 
L 121.235 257.693892 
L 121.786111 258.299514 
L 122.337222 258.903326 
L 122.888333 259.505363 
L 123.439444 260.105656 
L 123.990556 260.704238 
L 124.541667 261.301138 
L 125.092778 261.896387 
L 125.643889 262.490013 
L 126.195 263.082045 
L 126.746111 263.672509 
L 127.297222 264.261432 
L 127.848333 264.84884 
L 128.399444 265.434757 
L 128.950556 266.019209 
L 129.501667 266.602218 
L 130.052778 267.183807 
L 130.603889 267.764 
L 131.155 268.342817 
L 131.706111 268.92028 
L 132.257222 269.496411 
L 132.808333 270.071228 
L 133.359444 270.644752 
L 133.910556 271.217002 
L 134.461667 271.787997 
L 135.012778 272.357755 
L 135.563889 272.926293 
L 136.115 273.49363 
L 136.666111 274.059782 
L 137.217222 274.624766 
L 137.768333 275.188598 
L 138.319444 275.751294 
L 138.870556 276.31287 
L 139.421667 276.87334 
L 139.972778 277.432719 
L 140.523889 277.991023 
L 141.075 278.548264 
L 141.626111 279.104458 
L 142.177222 279.659616 
L 142.728333 280.213754 
L 143.279444 280.766883 
L 143.830556 281.319017 
L 144.381667 281.870167 
L 144.932778 282.420347 
L 145.483889 282.969567 
L 146.035 283.51784 
L 146.586111 284.065178 
L 147.137222 284.611591 
L 147.688333 285.15709 
L 148.239444 285.701686 
L 148.790556 286.24539 
L 149.341667 286.788213 
L 149.892778 287.330163 
L 150.443889 287.871252 
L 150.995 288.411489 
L 151.546111 288.950884 
L 152.097222 289.489446 
L 152.648333 290.027184 
L 153.199444 290.564108 
L 153.750556 291.100226 
L 154.301667 291.635547 
L 154.852778 292.17008 
L 155.403889 292.703834 
L 155.955 293.236815 
L 156.506111 293.769034 
L 157.057222 294.300497 
L 157.608333 294.831213 
L 158.159444 295.361188 
L 158.710556 295.890432 
L 159.261667 296.418951 
L 159.812778 296.946753 
L 160.363889 297.473845 
L 160.915 298.000233 
L 161.466111 298.525926 
L 162.017222 299.05093 
L 162.568333 299.575251 
L 163.119444 300.098896 
L 163.670556 300.621872 
L 164.221667 301.144186 
L 164.772778 301.665843 
L 165.323889 302.18685 
L 165.875 302.707213 
L 166.426111 303.226937 
L 166.977222 303.74603 
L 167.528333 304.264497 
L 168.079444 304.782343 
L 168.630556 305.299574 
L 169.181667 305.816196 
L 169.732778 306.332214 
L 170.283889 306.847634 
L 170.835 307.362462 
L 171.386111 307.876701 
L 171.937222 308.390358 
L 172.488333 308.903438 
L 173.039444 309.415945 
L 173.590556 309.927885 
L 174.141667 310.439263 
L 174.692778 310.950083 
L 175.243889 311.46035 
L 175.795 311.970069 
L 176.346111 312.479244 
L 176.897222 312.98788 
L 177.448333 313.495982 
L 177.999444 314.003553 
L 178.550556 314.510599 
L 179.101667 315.017123 
L 179.652778 315.523131 
L 180.203889 316.028625 
L 180.755 316.53361 
L 181.306111 317.038091 
L 181.857222 317.54207 
L 182.408333 318.045554 
L 182.959444 318.548544 
L 183.510556 319.051045 
L 184.061667 319.553061 
L 184.612778 320.054596 
L 185.163889 320.555653 
L 185.715 321.056236 
L 186.266111 321.556349 
L 186.817222 322.055995 
L 187.368333 322.555177 
L 187.919444 323.0539 
L 188.470556 323.552167 
L 189.021667 324.049981 
L 189.572778 324.547345 
L 190.123889 325.044263 
L 190.675 325.540738 
L 191.226111 326.036774 
L 191.777222 326.532373 
L 192.328333 327.027539 
L 192.879444 327.522274 
L 193.430556 328.016582 
L 193.981667 328.510467 
L 194.532778 329.00393 
L 195.083889 329.496975 
L 195.635 329.989605 
L 196.186111 330.481823 
L 196.737222 330.973632 
L 197.288333 331.465034 
L 197.839444 331.956032 
L 198.390556 332.44663 
L 198.941667 332.936829 
L 199.492778 333.426633 
L 200.043889 333.916044 
L 200.595 334.405065 
L 201.146111 334.893699 
L 201.697222 335.381948 
L 202.248333 335.869814 
L 202.799444 336.357301 
L 203.350556 336.84441 
L 203.901667 337.331145 
L 204.452778 337.817507 
L 205.003889 338.303499 
L 205.555 338.789124 
L 206.106111 339.274384 
L 206.657222 339.759281 
L 207.208333 340.243818 
L 207.759444 340.727996 
L 208.310556 341.211819 
L 208.861667 341.695287 
L 209.412778 342.178405 
L 209.963889 342.661173 
L 210.515 343.143595 
L 211.066111 343.625671 
L 211.617222 344.107405 
L 212.168333 344.588798 
L 212.719444 345.069853 
L 213.270556 345.550571 
L 213.821667 346.030955 
L 214.372778 346.511007 
L 214.923889 346.990728 
L 215.475 347.470121 
L 216.026111 347.949188 
L 216.577222 348.42793 
L 217.128333 348.90635 
L 217.679444 349.384449 
L 218.230556 349.862229 
L 218.781667 350.339693 
L 219.332778 350.816842 
L 219.883889 351.293677 
L 220.435 351.770201 
L 220.986111 352.246416 
L 221.537222 352.722323 
L 222.088333 353.197925 
L 222.639444 353.673222 
L 223.190556 354.148216 
L 223.741667 354.62291 
L 224.292778 355.097305 
L 224.843889 355.571402 
L 225.395 356.045204 
L 225.946111 356.518712 
L 226.497222 356.991927 
L 227.048333 357.464852 
L 227.599444 357.937487 
L 228.150556 358.409835 
L 228.701667 358.881898 
L 229.252778 359.353675 
L 229.803889 359.82517 
L 230.355 360.296383 
L 230.906111 360.767317 
L 231.457222 361.237973 
L 232.008333 361.708351 
L 232.559444 362.178455 
L 233.110556 362.648284 
L 233.661667 363.117841 
L 234.212778 363.587127 
L 234.763889 364.056144 
L 235.315 364.524893 
L 235.866111 364.993375 
L 236.417222 365.461592 
L 236.968333 365.929544 
L 237.519444 366.397235 
L 238.070556 366.864664 
L 238.621667 367.331833 
L 239.172778 367.798744 
L 239.723889 368.265398 
L 240.275 368.731795 
L 240.826111 369.197939 
L 241.377222 369.663829 
L 241.928333 370.129467 
L 242.479444 370.594854 
L 243.030556 371.059992 
L 243.581667 371.524881 
L 244.132778 371.989524 
L 244.683889 372.453921 
L 245.235 372.918073 
L 245.786111 373.381982 
L 246.337222 373.845649 
L 246.888333 374.309075 
L 247.439444 374.772262 
L 247.990556 375.235209 
L 248.541667 375.69792 
L 249.092778 376.160393 
L 249.643889 376.622632 
L 250.195 377.084637 
L 250.746111 377.546409 
L 251.297222 378.007949 
L 251.848333 378.469259 
L 252.399444 378.930338 
L 252.950556 379.39119 
L 253.501667 379.851814 
L 254.052778 380.312211 
L 254.603889 380.772384 
L 255.155 381.232332 
L 255.706111 381.692057 
L 256.257222 382.151559 
L 256.808333 382.610841 
L 257.359444 383.069903 
L 257.910556 383.528745 
L 258.461667 383.987369 
L 259.012778 384.445777 
L 259.563889 384.903968 
L 260.115 385.361944 
L 260.666111 385.819706 
L 261.217222 386.277254 
L 261.768333 386.734591 
L 262.319444 387.191716 
L 262.870556 387.648631 
L 263.421667 388.105337 
L 263.972778 388.561834 
L 264.523889 389.018123 
L 265.075 389.474207 
L 265.626111 389.930084 
L 266.177222 390.385756 
L 266.728333 390.841225 
L 267.279444 391.296491 
L 267.830556 391.751554 
L 268.381667 392.206417 
L 268.932778 392.661079 
L 269.483889 393.115541 
L 270.035 393.569805 
L 270.586111 394.023871 
L 271.137222 394.47774 
L 271.688333 394.931413 
L 272.239444 395.384891 
L 272.790556 395.838174 
L 273.341667 396.291264 
L 273.892778 396.744161 
L 274.443889 397.196866 
L 274.995 397.64938 
L 275.546111 398.101704 
L 276.097222 398.553838 
L 276.648333 399.005783 
L 277.199444 399.45754 
L 277.750556 399.90911 
L 278.301667 400.360494 
L 278.852778 400.811691 
L 279.403889 401.262704 
L 279.955 401.713533 
L 280.506111 402.164179 
L 281.057222 402.614641 
L 281.608333 403.064922 
L 282.159444 403.515022 
L 282.710556 403.964941 
L 283.261667 404.414681 
L 283.812778 404.864241 
L 284.363889 405.313624 
L 284.915 405.762829 
L 285.466111 406.211856 
L 286.017222 406.660708 
L 286.568333 407.109385 
L 287.119444 407.557886 
L 287.670556 408.006214 
L 288.221667 408.454368 
L 288.772778 408.902349 
L 289.323889 409.350159 
L 289.875 409.797797 
L 290.426111 410.245264 
L 290.977222 410.692562 
L 291.528333 411.13969 
L 292.079444 411.586649 
L 292.630556 412.03344 
L 293.181667 412.480064 
L 293.732778 412.926521 
L 294.283889 413.372812 
L 294.835 413.818938 
L 295.386111 414.264898 
L 295.937222 414.710695 
L 296.488333 415.156328 
L 297.039444 415.601798 
L 297.590556 416.047105 
L 298.141667 416.492251 
L 298.692778 416.937235 
L 299.243889 417.382059 
L 299.795 417.826723 
L 300.346111 418.271228 
L 300.897222 418.715574 
L 301.448333 419.159761 
L 301.999444 419.603792 
L 302.550556 420.047665 
L 303.101667 420.491381 
L 303.652778 420.934942 
L 304.203889 421.378348 
L 304.755 421.821598 
L 305.306111 422.264695 
L 305.857222 422.707638 
L 306.408333 423.150428 
L 306.959444 423.593065 
L 307.510556 424.035551 
L 308.061667 424.477885 
L 308.612778 424.920068 
L 309.163889 425.362101 
L 309.715 425.803984 
L 310.266111 426.245718 
L 310.817222 426.687303 
L 311.368333 427.12874 
L 311.919444 427.570029 
L 312.470556 428.011171 
L 313.021667 428.452167 
L 313.572778 428.893016 
L 314.123889 429.33372 
L 314.675 429.774279 
L 315.226111 430.214693 
L 315.777222 430.654963 
L 316.328333 431.09509 
L 316.879444 431.535073 
L 317.430556 431.974914 
L 317.981667 432.414613 
L 318.532778 432.85417 
L 319.083889 433.293586 
L 319.635 433.732861 
L 320.186111 434.171997 
L 320.737222 434.610992 
L 321.288333 435.049848 
L 321.839444 435.488566 
L 322.390556 435.927145 
L 322.941667 436.365587 
L 323.492778 436.803891 
L 324.043889 437.242059 
L 324.595 437.68009 
L 325.146111 438.117985 
L 325.697222 438.555744 
L 326.248333 438.993369 
L 326.799444 439.430858 
L 327.350556 439.868214 
L 327.901667 440.305436 
L 328.452778 440.742525 
L 329.003889 441.179481 
L 329.555 441.616304 
L 330.106111 442.052996 
L 330.657222 442.489556 
L 331.208333 442.925985 
L 331.759444 443.362283 
L 332.310556 443.798451 
L 332.861667 444.23449 
L 333.412778 444.670398 
L 333.963889 445.106178 
L 334.515 445.54183 
L 335.066111 445.977353 
L 335.617222 446.412748 
L 336.168333 446.848016 
L 336.719444 447.283157 
L 337.270556 447.718172 
L 337.821667 448.153061 
L 338.372778 448.587824 
L 338.923889 449.022461 
L 339.475 449.456974 
L 340.026111 449.891362 
L 340.577222 450.325626 
L 341.128333 450.759766 
L 341.679444 451.193783 
L 342.230556 451.627677 
L 342.781667 452.061448 
L 343.332778 452.495098 
L 343.883889 452.928625 
L 344.435 453.362031 
L 344.986111 453.795316 
L 345.537222 454.22848 
L 346.088333 454.661524 
L 346.639444 455.094448 
L 347.190556 455.527252 
L 347.741667 455.959937 
L 348.292778 456.392503 
L 348.843889 456.824951 
L 349.395 457.257281 
L 349.946111 457.689493 
L 350.497222 458.121587 
L 351.048333 458.553565 
L 351.599444 458.985426 
L 352.150556 459.41717 
L 352.701667 459.848798 
L 353.252778 460.280311 
L 353.803889 460.711709 
L 354.355 461.142991 
L 354.906111 461.574159 
L 355.457222 462.005213 
L 356.008333 462.436153 
L 356.559444 462.866979 
L 357.110556 463.297692 
L 357.661667 463.728292 
L 358.212778 464.15878 
L 358.763889 464.589155 
L 359.315 465.019418 
L 359.866111 465.44957 
L 360.417222 465.87961 
L 360.968333 466.30954 
L 361.519444 466.739359 
L 362.070556 467.169067 
L 362.621667 467.598666 
L 363.172778 468.028155 
L 363.723889 468.457535 
L 364.275 468.886805 
L 364.826111 469.315967 
L 365.377222 469.745021 
L 365.928333 470.173966 
L 366.479444 470.602804 
L 367.030556 471.031534 
L 367.581667 471.460157 
L 368.132778 471.888673 
L 368.683889 472.317083 
L 369.235 472.745387 
L 369.786111 473.173584 
L 370.337222 473.601676 
L 370.888333 474.029662 
L 371.439444 474.457544 
L 371.990556 474.885321 
L 372.541667 475.312993 
L 373.092778 475.740561 
L 373.643889 476.168025 
L 374.195 476.595386 
L 374.746111 477.022643 
L 375.297222 477.449798 
L 375.848333 477.876849 
L 376.399444 478.303799 
L 376.950556 478.730646 
L 377.501667 479.157391 
L 378.052778 479.584035 
L 378.603889 480.010577 
L 379.155 480.437018 
L 379.706111 480.863359 
L 380.257222 481.289599 
L 380.808333 481.715739 
L 381.359444 482.141779 
L 381.910556 482.567719 
L 382.461667 482.99356 
L 383.012778 483.419302 
L 383.563889 483.844945 
L 384.115 484.270489 
L 384.666111 484.695935 
L 385.217222 485.121283 
L 385.768333 485.546533 
L 386.319444 485.971686 
L 386.870556 486.396741 
L 387.421667 486.8217 
L 387.972778 487.246561 
L 388.523889 487.671327 
L 389.075 488.095996 
L 389.626111 488.520569 
L 390.177222 488.945046 
L 390.728333 489.369428 
L 391.279444 489.793714 
L 391.830556 490.217906 
L 392.381667 490.642003 
L 392.932778 491.066005 
L 393.483889 491.489914 
L 394.035 491.913728 
L 394.586111 492.337448 
L 395.137222 492.761076 
L 395.688333 493.184609 
L 396.239444 493.60805 
L 396.790556 494.031398 
L 397.341667 494.454654 
L 397.892778 494.877817 
L 398.443889 495.300889 
L 398.995 495.723868 
L 399.546111 496.146756 
L 400.097222 496.569553 
L 400.648333 496.992258 
L 401.199444 497.414873 
L 401.750556 497.837397 
L 402.301667 498.25983 
L 402.852778 498.682174 
L 403.403889 499.104427 
L 403.955 499.526591 
L 404.506111 499.948666 
L 405.057222 500.370651 
L 405.608333 500.792547 
L 406.159444 501.214354 
L 406.710556 501.636073 
L 407.261667 502.057703 
L 407.812778 502.479245 
L 408.363889 502.9007 
L 408.915 503.322066 
L 409.466111 503.743345 
L 410.017222 504.164537 
L 410.568333 504.585642 
L 411.119444 505.00666 
L 411.670556 505.427591 
L 412.221667 505.848436 
L 412.772778 506.269195 
L 413.323889 506.689868 
L 413.875 507.110455 
L 414.426111 507.530957 
L 414.977222 507.951373 
L 415.528333 508.371704 
L 416.079444 508.79195 
L 416.630556 509.212111 
L 417.181667 509.632188 
L 417.732778 510.052181 
L 418.283889 510.47209 
L 418.835 510.891914 
L 419.386111 511.311655 
L 419.937222 511.731313 
L 420.488333 512.150887 
L 421.039444 512.570378 
L 421.590556 512.989786 
L 422.141667 513.409112 
L 422.692778 513.828355 
L 423.243889 514.247516 
L 423.795 514.666594 
L 424.346111 515.085591 
L 424.897222 515.504506 
L 425.448333 515.92334 
L 425.999444 516.342092 
L 426.550556 516.760763 
L 427.101667 517.179353 
L 427.652778 517.597863 
L 428.203889 518.016292 
L 428.755 518.434641 
L 429.306111 518.852909 
L 429.857222 519.271098 
L 430.408333 519.689206 
L 430.959444 520.107235 
L 431.510556 520.525185 
L 432.061667 520.943055 
L 432.612778 521.360847 
L 433.163889 521.778559 
L 433.715 522.196193 
L 434.266111 522.613749 
L 434.817222 523.031226 
L 435.368333 523.448625 
L 435.919444 523.865946 
L 436.470556 524.283189 
L 437.021667 524.700354 
L 437.572778 525.117443 
L 438.123889 525.534454 
L 438.675 525.951388 
L 439.226111 526.368245 
L 439.777222 526.785025 
L 440.328333 527.201729 
L 440.879444 527.618356 
L 441.430556 528.034908 
L 441.981667 528.451383 
L 442.532778 528.867782 
L 443.083889 529.284106 
L 443.635 529.700354 
L 444.186111 530.116527 
L 444.737222 530.532625 
L 445.288333 530.948648 
L 445.839444 531.364596 
L 446.390556 531.780469 
L 446.941667 532.196268 
L 447.492778 532.611993 
L 448.043889 533.027643 
L 448.595 533.44322 
L 449.146111 533.858722 
L 449.697222 534.274151 
L 450.248333 534.689507 
L 450.799444 535.104789 
L 451.350556 535.519998 
L 451.901667 535.935134 
L 452.452778 536.350197 
L 453.003889 536.765188 
L 453.555 537.180106 
L 454.106111 537.594951 
L 454.657222 538.009725 
L 455.208333 538.424426 
L 455.759444 538.839055 
L 456.310556 539.253613 
L 456.861667 539.668099 
L 457.412778 540.082514 
L 457.963889 540.496858 
L 458.515 540.91113 
L 459.066111 541.325332 
L 459.617222 541.739462 
L 460.168333 542.153522 
L 460.719444 542.567512 
L 461.270556 542.981431 
L 461.821667 543.39528 
L 462.372778 543.809059 
L 462.923889 544.222768 
L 463.475 544.636408 
L 464.026111 545.049977 
L 464.577222 545.463478 
L 465.128333 545.876909 
L 465.679444 546.290271 
L 466.230556 546.703564 
L 466.781667 547.116788 
L 467.332778 547.529943 
L 467.883889 547.94303 
L 468.435 548.356048 
L 468.986111 548.768998 
L 469.537222 549.181881 
L 470.088333 549.594695 
L 470.639444 550.007441 
L 471.190556 550.420119 
L 471.741667 550.83273 
L 472.292778 551.245274 
L 472.843889 551.65775 
L 473.395 552.070159 
L 473.946111 552.482502 
L 474.497222 552.894777 
L 475.048333 553.306986 
L 475.599444 553.719128 
L 476.150556 554.131204 
L 476.701667 554.543213 
L 477.252778 554.955156 
L 477.803889 555.367033 
L 478.355 555.778845 
L 478.906111 556.19059 
L 479.457222 556.60227 
L 480.008333 557.013885 
L 480.559444 557.425434 
L 481.110556 557.836918 
L 481.661667 558.248337 
L 482.212778 558.659691 
L 482.763889 559.07098 
L 483.315 559.482205 
L 483.866111 559.893365 
L 484.417222 560.30446 
L 484.968333 560.715491 
L 485.519444 561.126459 
L 486.070556 561.537362 
L 486.621667 561.948201 
L 487.172778 562.358976 
L 487.723889 562.769688 
L 488.275 563.180337 
L 488.275 281.992263 
L 488.275 281.992263 
L 487.723889 281.770463 
L 487.172778 281.548727 
L 486.621667 281.327054 
L 486.070556 281.105445 
L 485.519444 280.8839 
L 484.968333 280.66242 
L 484.417222 280.441003 
L 483.866111 280.21965 
L 483.315 279.998362 
L 482.763889 279.777139 
L 482.212778 279.55598 
L 481.661667 279.334886 
L 481.110556 279.113857 
L 480.559444 278.892893 
L 480.008333 278.671994 
L 479.457222 278.451161 
L 478.906111 278.230393 
L 478.355 278.00969 
L 477.803889 277.789054 
L 477.252778 277.568483 
L 476.701667 277.347978 
L 476.150556 277.127539 
L 475.599444 276.907167 
L 475.048333 276.686861 
L 474.497222 276.466622 
L 473.946111 276.246449 
L 473.395 276.026344 
L 472.843889 275.806305 
L 472.292778 275.586333 
L 471.741667 275.366429 
L 471.190556 275.146592 
L 470.639444 274.926822 
L 470.088333 274.70712 
L 469.537222 274.487487 
L 468.986111 274.267921 
L 468.435 274.048423 
L 467.883889 273.828993 
L 467.332778 273.609632 
L 466.781667 273.390339 
L 466.230556 273.171115 
L 465.679444 272.95196 
L 465.128333 272.732874 
L 464.577222 272.513857 
L 464.026111 272.29491 
L 463.475 272.076032 
L 462.923889 271.857223 
L 462.372778 271.638484 
L 461.821667 271.419815 
L 461.270556 271.201216 
L 460.719444 270.982687 
L 460.168333 270.764229 
L 459.617222 270.545841 
L 459.066111 270.327523 
L 458.515 270.109277 
L 457.963889 269.891101 
L 457.412778 269.672997 
L 456.861667 269.454964 
L 456.310556 269.237002 
L 455.759444 269.019112 
L 455.208333 268.801293 
L 454.657222 268.583546 
L 454.106111 268.365872 
L 453.555 268.14827 
L 453.003889 267.930739 
L 452.452778 267.713282 
L 451.901667 267.495897 
L 451.350556 267.278585 
L 450.799444 267.061346 
L 450.248333 266.84418 
L 449.697222 266.627088 
L 449.146111 266.410069 
L 448.595 266.193123 
L 448.043889 265.976252 
L 447.492778 265.759454 
L 446.941667 265.542731 
L 446.390556 265.326082 
L 445.839444 265.109507 
L 445.288333 264.893007 
L 444.737222 264.676582 
L 444.186111 264.460232 
L 443.635 264.243957 
L 443.083889 264.027757 
L 442.532778 263.811633 
L 441.981667 263.595584 
L 441.430556 263.379611 
L 440.879444 263.163715 
L 440.328333 262.947894 
L 439.777222 262.73215 
L 439.226111 262.516482 
L 438.675 262.300891 
L 438.123889 262.085377 
L 437.572778 261.86994 
L 437.021667 261.654581 
L 436.470556 261.439298 
L 435.919444 261.224093 
L 435.368333 261.008966 
L 434.817222 260.793917 
L 434.266111 260.578946 
L 433.715 260.364054 
L 433.163889 260.14924 
L 432.612778 259.934504 
L 432.061667 259.719848 
L 431.510556 259.50527 
L 430.959444 259.290772 
L 430.408333 259.076353 
L 429.857222 258.862014 
L 429.306111 258.647754 
L 428.755 258.433574 
L 428.203889 258.219475 
L 427.652778 258.005456 
L 427.101667 257.791518 
L 426.550556 257.57766 
L 425.999444 257.363883 
L 425.448333 257.150187 
L 424.897222 256.936573 
L 424.346111 256.72304 
L 423.795 256.509589 
L 423.243889 256.296219 
L 422.692778 256.082932 
L 422.141667 255.869727 
L 421.590556 255.656605 
L 421.039444 255.443565 
L 420.488333 255.230608 
L 419.937222 255.017734 
L 419.386111 254.804944 
L 418.835 254.592237 
L 418.283889 254.379613 
L 417.732778 254.167074 
L 417.181667 253.954619 
L 416.630556 253.742248 
L 416.079444 253.529961 
L 415.528333 253.317759 
L 414.977222 253.105642 
L 414.426111 252.89361 
L 413.875 252.681664 
L 413.323889 252.469803 
L 412.772778 252.258028 
L 412.221667 252.046339 
L 411.670556 251.834736 
L 411.119444 251.623219 
L 410.568333 251.411789 
L 410.017222 251.200446 
L 409.466111 250.98919 
L 408.915 250.778021 
L 408.363889 250.566939 
L 407.812778 250.355946 
L 407.261667 250.14504 
L 406.710556 249.934222 
L 406.159444 249.723493 
L 405.608333 249.512852 
L 405.057222 249.3023 
L 404.506111 249.091837 
L 403.955 248.881464 
L 403.403889 248.67118 
L 402.852778 248.460985 
L 402.301667 248.250881 
L 401.750556 248.040866 
L 401.199444 247.830942 
L 400.648333 247.621109 
L 400.097222 247.411366 
L 399.546111 247.201715 
L 398.995 246.992155 
L 398.443889 246.782686 
L 397.892778 246.57331 
L 397.341667 246.364025 
L 396.790556 246.154833 
L 396.239444 245.945733 
L 395.688333 245.736726 
L 395.137222 245.527811 
L 394.586111 245.318991 
L 394.035 245.110263 
L 393.483889 244.901629 
L 392.932778 244.69309 
L 392.381667 244.484644 
L 391.830556 244.276293 
L 391.279444 244.068037 
L 390.728333 243.859875 
L 390.177222 243.651809 
L 389.626111 243.443838 
L 389.075 243.235963 
L 388.523889 243.028184 
L 387.972778 242.820502 
L 387.421667 242.612915 
L 386.870556 242.405426 
L 386.319444 242.198033 
L 385.768333 241.990738 
L 385.217222 241.78354 
L 384.666111 241.57644 
L 384.115 241.369438 
L 383.563889 241.162534 
L 383.012778 240.955729 
L 382.461667 240.749023 
L 381.910556 240.542416 
L 381.359444 240.335908 
L 380.808333 240.1295 
L 380.257222 239.923192 
L 379.706111 239.716984 
L 379.155 239.510877 
L 378.603889 239.30487 
L 378.052778 239.098964 
L 377.501667 238.89316 
L 376.950556 238.687457 
L 376.399444 238.481856 
L 375.848333 238.276358 
L 375.297222 238.070961 
L 374.746111 237.865668 
L 374.195 237.660477 
L 373.643889 237.45539 
L 373.092778 237.250406 
L 372.541667 237.045526 
L 371.990556 236.84075 
L 371.439444 236.636079 
L 370.888333 236.431513 
L 370.337222 236.227051 
L 369.786111 236.022695 
L 369.235 235.818445 
L 368.683889 235.6143 
L 368.132778 235.410262 
L 367.581667 235.20633 
L 367.030556 235.002505 
L 366.479444 234.798787 
L 365.928333 234.595177 
L 365.377222 234.391674 
L 364.826111 234.18828 
L 364.275 233.984994 
L 363.723889 233.781817 
L 363.172778 233.578748 
L 362.621667 233.375789 
L 362.070556 233.17294 
L 361.519444 232.9702 
L 360.968333 232.767571 
L 360.417222 232.565053 
L 359.866111 232.362645 
L 359.315 232.160349 
L 358.763889 231.958164 
L 358.212778 231.756091 
L 357.661667 231.554131 
L 357.110556 231.352283 
L 356.559444 231.150548 
L 356.008333 230.948926 
L 355.457222 230.747418 
L 354.906111 230.546024 
L 354.355 230.344744 
L 353.803889 230.143578 
L 353.252778 229.942528 
L 352.701667 229.741593 
L 352.150556 229.540773 
L 351.599444 229.340069 
L 351.048333 229.139482 
L 350.497222 228.939012 
L 349.946111 228.738658 
L 349.395 228.538422 
L 348.843889 228.338304 
L 348.292778 228.138304 
L 347.741667 227.938422 
L 347.190556 227.738659 
L 346.639444 227.539015 
L 346.088333 227.339491 
L 345.537222 227.140087 
L 344.986111 226.940803 
L 344.435 226.74164 
L 343.883889 226.542598 
L 343.332778 226.343677 
L 342.781667 226.144879 
L 342.230556 225.946202 
L 341.679444 225.747648 
L 341.128333 225.549217 
L 340.577222 225.350909 
L 340.026111 225.152725 
L 339.475 224.954665 
L 338.923889 224.75673 
L 338.372778 224.558919 
L 337.821667 224.361234 
L 337.270556 224.163675 
L 336.719444 223.966242 
L 336.168333 223.768935 
L 335.617222 223.571755 
L 335.066111 223.374702 
L 334.515 223.177777 
L 333.963889 222.980981 
L 333.412778 222.784313 
L 332.861667 222.587774 
L 332.310556 222.391364 
L 331.759444 222.195084 
L 331.208333 221.998934 
L 330.657222 221.802915 
L 330.106111 221.607027 
L 329.555 221.411271 
L 329.003889 221.215646 
L 328.452778 221.020154 
L 327.901667 220.824795 
L 327.350556 220.629569 
L 326.799444 220.434477 
L 326.248333 220.239519 
L 325.697222 220.044695 
L 325.146111 219.850007 
L 324.595 219.655454 
L 324.043889 219.461036 
L 323.492778 219.266756 
L 322.941667 219.072612 
L 322.390556 218.878606 
L 321.839444 218.684737 
L 321.288333 218.491007 
L 320.737222 218.297415 
L 320.186111 218.103962 
L 319.635 217.91065 
L 319.083889 217.717477 
L 318.532778 217.524445 
L 317.981667 217.331554 
L 317.430556 217.138805 
L 316.879444 216.946198 
L 316.328333 216.753733 
L 315.777222 216.561412 
L 315.226111 216.369234 
L 314.675 216.1772 
L 314.123889 215.985311 
L 313.572778 215.793567 
L 313.021667 215.601968 
L 312.470556 215.410516 
L 311.919444 215.21921 
L 311.368333 215.028051 
L 310.817222 214.83704 
L 310.266111 214.646177 
L 309.715 214.455463 
L 309.163889 214.264898 
L 308.612778 214.074483 
L 308.061667 213.884218 
L 307.510556 213.694104 
L 306.959444 213.504142 
L 306.408333 213.314331 
L 305.857222 213.124673 
L 305.306111 212.935168 
L 304.755 212.745817 
L 304.203889 212.55662 
L 303.652778 212.367577 
L 303.101667 212.17869 
L 302.550556 211.989958 
L 301.999444 211.801383 
L 301.448333 211.612966 
L 300.897222 211.424705 
L 300.346111 211.236603 
L 299.795 211.04866 
L 299.243889 210.860876 
L 298.692778 210.673252 
L 298.141667 210.485788 
L 297.590556 210.298486 
L 297.039444 210.111345 
L 296.488333 209.924367 
L 295.937222 209.737552 
L 295.386111 209.550901 
L 294.835 209.364413 
L 294.283889 209.178091 
L 293.732778 208.991934 
L 293.181667 208.805943 
L 292.630556 208.620119 
L 292.079444 208.434462 
L 291.528333 208.248973 
L 290.977222 208.063653 
L 290.426111 207.878503 
L 289.875 207.693522 
L 289.323889 207.508712 
L 288.772778 207.324074 
L 288.221667 207.139607 
L 287.670556 206.955313 
L 287.119444 206.771193 
L 286.568333 206.587247 
L 286.017222 206.403475 
L 285.466111 206.219879 
L 284.915 206.036459 
L 284.363889 205.853215 
L 283.812778 205.67015 
L 283.261667 205.487262 
L 282.710556 205.304554 
L 282.159444 205.122025 
L 281.608333 204.939677 
L 281.057222 204.75751 
L 280.506111 204.575524 
L 279.955 204.393722 
L 279.403889 204.212103 
L 278.852778 204.030668 
L 278.301667 203.849417 
L 277.750556 203.668353 
L 277.199444 203.487475 
L 276.648333 203.306784 
L 276.097222 203.126281 
L 275.546111 202.945967 
L 274.995 202.765843 
L 274.443889 202.585909 
L 273.892778 202.406166 
L 273.341667 202.226615 
L 272.790556 202.047257 
L 272.239444 201.868092 
L 271.688333 201.689122 
L 271.137222 201.510347 
L 270.586111 201.331768 
L 270.035 201.153386 
L 269.483889 200.975202 
L 268.932778 200.797216 
L 268.381667 200.61943 
L 267.830556 200.441845 
L 267.279444 200.26446 
L 266.728333 200.087278 
L 266.177222 199.910299 
L 265.626111 199.733523 
L 265.075 199.556953 
L 264.523889 199.380588 
L 263.972778 199.204429 
L 263.421667 199.028478 
L 262.870556 198.852736 
L 262.319444 198.677203 
L 261.768333 198.50188 
L 261.217222 198.326769 
L 260.666111 198.151869 
L 260.115 197.977183 
L 259.563889 197.802711 
L 259.012778 197.628454 
L 258.461667 197.454414 
L 257.910556 197.28059 
L 257.359444 197.106985 
L 256.808333 196.933598 
L 256.257222 196.760432 
L 255.706111 196.587486 
L 255.155 196.414763 
L 254.603889 196.242263 
L 254.052778 196.069988 
L 253.501667 195.897937 
L 252.950556 195.726113 
L 252.399444 195.554517 
L 251.848333 195.383149 
L 251.297222 195.21201 
L 250.746111 195.041102 
L 250.195 194.870426 
L 249.643889 194.699983 
L 249.092778 194.529774 
L 248.541667 194.3598 
L 247.990556 194.190062 
L 247.439444 194.020561 
L 246.888333 193.8513 
L 246.337222 193.682278 
L 245.786111 193.513497 
L 245.235 193.344958 
L 244.683889 193.176662 
L 244.132778 193.008611 
L 243.581667 192.840806 
L 243.030556 192.673247 
L 242.479444 192.505937 
L 241.928333 192.338876 
L 241.377222 192.172066 
L 240.826111 192.005508 
L 240.275 191.839204 
L 239.723889 191.673154 
L 239.172778 191.507359 
L 238.621667 191.341822 
L 238.070556 191.176543 
L 237.519444 191.011524 
L 236.968333 190.846767 
L 236.417222 190.682272 
L 235.866111 190.51804 
L 235.315 190.354074 
L 234.763889 190.190375 
L 234.212778 190.026944 
L 233.661667 189.863782 
L 233.110556 189.700891 
L 232.559444 189.538272 
L 232.008333 189.375928 
L 231.457222 189.213858 
L 230.906111 189.052066 
L 230.355 188.890552 
L 229.803889 188.729317 
L 229.252778 188.568364 
L 228.701667 188.407694 
L 228.150556 188.247308 
L 227.599444 188.087208 
L 227.048333 187.927395 
L 226.497222 187.767872 
L 225.946111 187.608639 
L 225.395 187.449699 
L 224.843889 187.291053 
L 224.292778 187.132702 
L 223.741667 186.974649 
L 223.190556 186.816895 
L 222.639444 186.659442 
L 222.088333 186.502291 
L 221.537222 186.345444 
L 220.986111 186.188903 
L 220.435 186.03267 
L 219.883889 185.876746 
L 219.332778 185.721134 
L 218.781667 185.565834 
L 218.230556 185.41085 
L 217.679444 185.256182 
L 217.128333 185.101833 
L 216.577222 184.947805 
L 216.026111 184.794099 
L 215.475 184.640718 
L 214.923889 184.487663 
L 214.372778 184.334936 
L 213.821667 184.18254 
L 213.270556 184.030476 
L 212.719444 183.878746 
L 212.168333 183.727353 
L 211.617222 183.576298 
L 211.066111 183.425584 
L 210.515 183.275212 
L 209.963889 183.125186 
L 209.412778 182.975506 
L 208.861667 182.826176 
L 208.310556 182.677196 
L 207.759444 182.528571 
L 207.208333 182.380301 
L 206.657222 182.23239 
L 206.106111 182.084839 
L 205.555 181.937651 
L 205.003889 181.790828 
L 204.452778 181.644372 
L 203.901667 181.498286 
L 203.350556 181.352573 
L 202.799444 181.207234 
L 202.248333 181.062273 
L 201.697222 180.917691 
L 201.146111 180.773492 
L 200.595 180.629678 
L 200.043889 180.486251 
L 199.492778 180.343214 
L 198.941667 180.20057 
L 198.390556 180.058321 
L 197.839444 179.916471 
L 197.288333 179.775021 
L 196.737222 179.633975 
L 196.186111 179.493336 
L 195.635 179.353106 
L 195.083889 179.213288 
L 194.532778 179.073885 
L 193.981667 178.9349 
L 193.430556 178.796337 
L 192.879444 178.658197 
L 192.328333 178.520484 
L 191.777222 178.383202 
L 191.226111 178.246353 
L 190.675 178.109941 
L 190.123889 177.973968 
L 189.572778 177.838438 
L 189.021667 177.703354 
L 188.470556 177.56872 
L 187.919444 177.434539 
L 187.368333 177.300814 
L 186.817222 177.167548 
L 186.266111 177.034746 
L 185.715 176.902411 
L 185.163889 176.770546 
L 184.612778 176.639155 
L 184.061667 176.508242 
L 183.510556 176.37781 
L 182.959444 176.247863 
L 182.408333 176.118405 
L 181.857222 175.989441 
L 181.306111 175.860972 
L 180.755 175.733005 
L 180.203889 175.605542 
L 179.652778 175.478589 
L 179.101667 175.352148 
L 178.550556 175.226224 
L 177.999444 175.100822 
L 177.448333 174.975945 
L 176.897222 174.851599 
L 176.346111 174.727787 
L 175.795 174.604514 
L 175.243889 174.481785 
L 174.692778 174.359604 
L 174.141667 174.237976 
L 173.590556 174.116906 
L 173.039444 173.996398 
L 172.488333 173.876457 
L 171.937222 173.757089 
L 171.386111 173.638298 
L 170.835 173.520089 
L 170.283889 173.402469 
L 169.732778 173.285441 
L 169.181667 173.169011 
L 168.630556 173.053185 
L 168.079444 172.937968 
L 167.528333 172.823366 
L 166.977222 172.709385 
L 166.426111 172.59603 
L 165.875 172.483306 
L 165.323889 172.371221 
L 164.772778 172.25978 
L 164.221667 172.148989 
L 163.670556 172.038855 
L 163.119444 171.929383 
L 162.568333 171.82058 
L 162.017222 171.712453 
L 161.466111 171.605009 
L 160.915 171.498254 
L 160.363889 171.392194 
L 159.812778 171.286838 
L 159.261667 171.182192 
L 158.710556 171.078263 
L 158.159444 170.975059 
L 157.608333 170.872587 
L 157.057222 170.770854 
L 156.506111 170.669869 
L 155.955 170.56964 
L 155.403889 170.470173 
L 154.852778 170.371479 
L 154.301667 170.273564 
L 153.750556 170.176437 
L 153.199444 170.080107 
L 152.648333 169.984583 
L 152.097222 169.889873 
L 151.546111 169.795987 
L 150.995 169.702934 
L 150.443889 169.610723 
L 149.892778 169.519364 
L 149.341667 169.428866 
L 148.790556 169.339241 
L 148.239444 169.250497 
L 147.688333 169.162645 
L 147.137222 169.075696 
L 146.586111 168.989661 
L 146.035 168.904551 
L 145.483889 168.820376 
L 144.932778 168.737148 
L 144.381667 168.65488 
L 143.830556 168.573582 
L 143.279444 168.493268 
L 142.728333 168.413949 
L 142.177222 168.335639 
L 141.626111 168.258349 
L 141.075 168.182095 
L 140.523889 168.106888 
L 139.972778 168.032744 
L 139.421667 167.959675 
L 138.870556 167.887697 
L 138.319444 167.816825 
L 137.768333 167.747073 
L 137.217222 167.678457 
L 136.666111 167.610993 
L 136.115 167.544697 
L 135.563889 167.479586 
L 135.012778 167.415676 
L 134.461667 167.352986 
L 133.910556 167.291533 
L 133.359444 167.231335 
L 132.808333 167.172411 
L 132.257222 167.11478 
L 131.706111 167.058463 
L 131.155 167.003478 
L 130.603889 166.949847 
L 130.052778 166.897592 
L 129.501667 166.846733 
L 128.950556 166.797294 
L 128.399444 166.749298 
L 127.848333 166.702767 
L 127.297222 166.657727 
L 126.746111 166.614202 
L 126.195 166.572218 
L 125.643889 166.531802 
L 125.092778 166.49298 
L 124.541667 166.455781 
L 123.990556 166.420233 
L 123.439444 166.386367 
L 122.888333 166.354212 
L 122.337222 166.323801 
L 121.786111 166.295165 
L 121.235 166.268339 
L 120.683889 166.243356 
L 120.132778 166.220253 
L 119.581667 166.199066 
L 119.030556 166.179834 
L 118.479444 166.162596 
L 117.928333 166.147392 
L 117.377222 166.134264 
L 116.826111 166.123257 
L 116.275 166.114416 
L 115.723889 166.107786 
L 115.172778 166.103417 
L 114.621667 166.101359 
L 114.070556 166.101664 
L 113.519444 166.104386 
L 112.968333 166.109581 
L 112.417222 166.117308 
L 111.866111 166.127627 
L 111.315 166.140603 
L 110.763889 166.1563 
L 110.212778 166.174787 
L 109.661667 166.196136 
L 109.110556 166.220422 
L 108.559444 166.247723 
L 108.008333 166.278119 
L 107.457222 166.311697 
L 106.906111 166.348546 
L 106.355 166.388759 
L 105.803889 166.432434 
L 105.252778 166.479674 
L 104.701667 166.530587 
L 104.150556 166.585286 
L 103.599444 166.643893 
L 103.048333 166.706531 
L 102.497222 166.773336 
L 101.946111 166.844446 
L 101.395 166.920011 
L 100.843889 167.000188 
L 100.292778 167.085143 
L 99.741667 167.175054 
L 99.190556 167.27011 
L 98.639444 167.37051 
L 98.088333 167.476469 
L 97.537222 167.588216 
L 96.986111 167.705994 
L 96.435 167.830067 
L 95.883889 167.960716 
L 95.332778 168.098246 
L 94.781667 168.242985 
L 94.230556 168.395286 
L 93.679444 168.555536 
L 93.128333 168.724153 
L 92.577222 168.901593 
L 92.026111 169.088358 
L 91.475 169.284995 
L 90.923889 169.492111 
L 90.372778 169.710375 
L 89.821667 169.940532 
L 89.270556 170.183412 
L 88.719444 170.439948 
L 88.168333 170.711192 
L 87.617222 170.99834 
L 87.066111 171.302757 
L 86.515 171.626017 
L 85.963889 171.969949 
L 85.412778 172.336695 
L 84.861667 172.728801 
L 84.310556 173.149318 
L 83.759444 173.601968 
L 83.208333 174.091363 
L 82.657222 174.623335 
L 82.106111 175.205445 
L 81.555 175.847801 
L 81.003889 176.564443 
L 80.452778 177.375896 
L 79.901667 178.314343 
L 79.350556 179.435755 
L 78.799444 180.8556 
L 78.248333 182.913858 
z
" style="fill:#ff0000;fill-opacity:0.15;stroke:#ff0000;stroke-opacity:0.15;stroke-width:1.5;"/>
   </g>
   <g id="LineCollection_1">
    <path clip-path="url(#pe77ee84ffe)" d="M 47.937222 80.64 
L 488.275 80.64 
" style="fill:none;stroke:#808080;stroke-dasharray:6.000000,6.000000;stroke-dashoffset:0.0;stroke-width:2.0;"/>
    <path clip-path="url(#pe77ee84ffe)" d="M 47.937222 172.8 
L 488.275 172.8 
" style="fill:none;stroke:#808080;stroke-dasharray:6.000000,6.000000;stroke-dashoffset:0.0;stroke-width:2.0;"/>
   </g>
   <g id="LineCollection_2">
    <path clip-path="url(#pe77ee84ffe)" d="M 77.846022 345.6 
L 77.846022 -0 
" style="fill:none;stroke:#000000;stroke-dasharray:1.000000,3.000000;stroke-dashoffset:0.0;stroke-width:1.5;"/>
   </g>
   <g id="line2d_1">
    <path clip-path="url(#pe77ee84ffe)" d="M 47.937222 57.6 
L 78.248333 57.684065 
L 103.048333 62.749456 
L 128.399444 67.697113 
L 154.301667 72.52266 
L 180.755 77.222279 
L 207.759444 81.792698 
L 235.315 86.231176 
L 263.421667 90.535493 
L 292.630556 94.781986 
L 322.390556 98.883229 
L 353.252778 102.9088 
L 384.666111 106.781187 
L 417.181667 110.563618 
L 450.799444 114.246565 
L 484.968333 117.766629 
L 488.275 118.095841 
L 488.275 118.095841 
" style="fill:none;stroke:#000000;stroke-linecap:square;stroke-width:2.0;"/>
   </g>
   <g id="line2d_2">
    <path clip-path="url(#pe77ee84ffe)" d="M 47.937222 288 
L 78.248333 287.915935 
L 103.048333 282.850544 
L 128.399444 277.902887 
L 154.301667 273.07734 
L 180.755 268.377721 
L 207.759444 263.807302 
L 235.315 259.368824 
L 263.421667 255.064507 
L 292.630556 250.818014 
L 322.390556 246.716771 
L 353.252778 242.6912 
L 384.666111 238.818813 
L 417.181667 235.036382 
L 450.799444 231.353435 
L 484.968333 227.833371 
L 488.275 227.504159 
L 488.275 227.504159 
" style="fill:none;stroke:#000000;stroke-linecap:square;stroke-width:2.0;"/>
   </g>
   <g id="line2d_3">
    <path clip-path="url(#pe77ee84ffe)" d="M 47.937222 187.0848 
L 77.697222 187.185453 
L 355.901769 -1 
L 355.901769 -1 
" style="fill:none;opacity:0.3;stroke:#008000;stroke-linecap:square;stroke-width:2.0;"/>
   </g>
   <g id="line2d_4">
    <path clip-path="url(#pe77ee84ffe)" d="M 47.937222 187.0848 
L 77.697222 186.99942 
L 423.201421 385.2475 
L 423.201421 385.2475 
" style="fill:none;opacity:0.3;stroke:#ff0000;stroke-linecap:square;stroke-width:2.0;"/>
   </g>
   <g id="line2d_5">
    <path clip-path="url(#pe77ee84ffe)" d="M 47.937222 187.0848 
L 77.146111 187.0848 
L 77.697222 184.80209 
L 78.248333 185.193011 
L 78.799444 177.82483 
L 79.350556 178.956679 
L 79.901667 181.396974 
L 80.452778 174.056233 
L 81.003889 176.720923 
L 81.555 174.81261 
L 82.106111 167.595684 
L 82.657222 169.561473 
L 83.208333 167.335039 
L 83.759444 167.391535 
L 84.310556 163.280693 
L 84.861667 160.764433 
L 85.412778 151.071222 
L 85.963889 152.400937 
L 86.515 142.843339 
L 87.066111 147.168044 
L 87.617222 141.087516 
L 88.168333 144.362293 
L 88.719444 145.850685 
L 89.270556 133.951841 
L 89.821667 133.050683 
L 90.372778 134.345204 
L 90.923889 124.642438 
L 91.475 124.081573 
L 92.026111 124.906992 
L 92.577222 114.638286 
L 93.128333 114.733826 
L 93.679444 113.558162 
L 94.230556 112.78073 
L 94.781667 117.423314 
L 95.332778 103.416744 
L 96.435 94.955428 
L 98.088333 76.355644 
L 98.639444 85.525873 
L 99.190556 85.239456 
L 99.741667 77.735364 
L 100.292778 76.600869 
L 100.843889 70.02552 
L 101.395 70.110219 
L 101.946111 72.972048 
L 102.497222 70.531909 
L 103.599444 82.886364 
L 104.150556 82.906824 
L 104.701667 82.400028 
L 105.252778 88.751008 
L 105.803889 90.239857 
L 106.355 92.465443 
L 106.906111 87.756024 
L 107.457222 86.212375 
L 108.008333 90.448637 
L 108.559444 88.768361 
L 109.110556 85.058971 
L 110.212778 82.781633 
L 110.763889 88.061823 
L 111.315 72.89071 
L 111.866111 69.856978 
L 112.417222 65.050711 
L 112.968333 70.516092 
L 114.070556 60.599363 
L 114.621667 63.761053 
L 115.172778 65.668575 
L 115.723889 73.521575 
L 116.275 75.602248 
L 116.826111 76.879706 
L 117.377222 82.266183 
L 117.928333 83.1377 
L 118.479444 83.217173 
L 119.030556 87.569459 
L 119.581667 80.19326 
L 120.132778 83.158114 
L 120.683889 83.753671 
L 121.235 74.017007 
L 121.786111 79.751314 
L 122.337222 82.045553 
L 122.888333 85.789392 
L 123.439444 79.345841 
L 123.990556 86.33934 
L 124.541667 87.499807 
L 125.643889 82.959833 
L 126.195 74.701064 
L 126.746111 75.644299 
L 127.297222 82.293255 
L 127.848333 80.685768 
L 128.399444 72.181368 
L 128.950556 73.964297 
L 129.501667 71.69973 
L 130.052778 75.727505 
L 130.603889 70.622803 
L 131.155 72.482625 
L 131.706111 77.670374 
L 132.257222 78.895476 
L 132.808333 76.267604 
L 133.359444 82.316699 
L 133.910556 82.752557 
L 134.461667 73.191061 
L 135.012778 83.933954 
L 135.563889 86.814637 
L 136.115 87.152964 
L 136.666111 83.797952 
L 137.217222 90.422359 
L 137.768333 89.886728 
L 138.319444 84.582528 
L 138.870556 93.822394 
L 139.421667 98.0301 
L 139.972778 100.704823 
L 140.523889 105.045267 
L 141.075 104.046276 
L 141.626111 105.097702 
L 141.626111 105.097702 
" style="fill:none;stroke:#008000;stroke-linecap:square;stroke-width:2.0;"/>
   </g>
   <g id="line2d_6">
    <defs>
     <path d="M 0 3 
C 0.795609 3 1.55874 2.683901 2.12132 2.12132 
C 2.683901 1.55874 3 0.795609 3 0 
C 3 -0.795609 2.683901 -1.55874 2.12132 -2.12132 
C 1.55874 -2.683901 0.795609 -3 0 -3 
C -0.795609 -3 -1.55874 -2.683901 -2.12132 -2.12132 
C -2.683901 -1.55874 -3 -0.795609 -3 0 
C -3 0.795609 -2.683901 1.55874 -2.12132 2.12132 
C -1.55874 2.683901 -0.795609 3 0 3 
z
" id="m05ab37377b" style="stroke:#000000;stroke-width:0.5;"/>
    </defs>
    <g clip-path="url(#pe77ee84ffe)">
     <use style="fill:#008000;stroke:#000000;stroke-width:0.5;" x="113.795" xlink:href="#m05ab37377b" y="60.5993630276"/>
     <use style="fill:#008000;stroke:#000000;stroke-width:0.5;" x="141.626111111" xlink:href="#m05ab37377b" y="105.097702451"/>
    </g>
   </g>
   <g id="patch_3">
    <path d="M 41.875 345.6 
L 488.275 345.6 
" style="fill:none;stroke:#000000;stroke-linecap:square;stroke-linejoin:miter;"/>
   </g>
   <g id="patch_4">
    <path d="M 41.875 345.6 
L 41.875 -0 
" style="fill:none;stroke:#000000;stroke-linecap:square;stroke-linejoin:miter;"/>
   </g>
   <g id="matplotlib.axis_1">
    <g id="xtick_1">
     <g id="line2d_7">
      <defs>
       <path d="M 0 0 
L 0 -4 
" id="md36d655d4b" style="stroke:#000000;stroke-width:0.5;"/>
      </defs>
      <g>
       <use style="stroke:#000000;stroke-width:0.5;" x="47.3861111111" xlink:href="#md36d655d4b" y="345.6"/>
      </g>
     </g>
     <g id="text_1">
      <text style="font-family:Arial;font-size:16.0px;font-style:normal;font-weight:400;text-anchor:middle;" transform="rotate(-0.000000, 47.386111, 361.052500)" x="47.3861111111" y="361.0525">0</text>
     </g>
    </g>
    <g id="xtick_2">
     <g id="line2d_8">
      <g>
       <use style="stroke:#000000;stroke-width:0.5;" x="157.608333333" xlink:href="#md36d655d4b" y="345.6"/>
      </g>
     </g>
     <g id="text_2">
      <text style="font-family:Arial;font-size:16.0px;font-style:normal;font-weight:400;text-anchor:middle;" transform="rotate(-0.000000, 157.608333, 361.052500)" x="157.608333333" y="361.0525">2</text>
     </g>
    </g>
    <g id="xtick_3">
     <g id="line2d_9">
      <g>
       <use style="stroke:#000000;stroke-width:0.5;" x="267.830555556" xlink:href="#md36d655d4b" y="345.6"/>
      </g>
     </g>
     <g id="text_3">
      <text style="font-family:Arial;font-size:16.0px;font-style:normal;font-weight:400;text-anchor:middle;" transform="rotate(-0.000000, 267.830556, 361.052500)" x="267.830555556" y="361.0525">4</text>
     </g>
    </g>
    <g id="xtick_4">
     <g id="line2d_10">
      <g>
       <use style="stroke:#000000;stroke-width:0.5;" x="378.052777778" xlink:href="#md36d655d4b" y="345.6"/>
      </g>
     </g>
     <g id="text_4">
      <text style="font-family:Arial;font-size:16.0px;font-style:normal;font-weight:400;text-anchor:middle;" transform="rotate(-0.000000, 378.052778, 361.052500)" x="378.052777778" y="361.0525">6</text>
     </g>
    </g>
    <g id="xtick_5">
     <g id="line2d_11">
      <g>
       <use style="stroke:#000000;stroke-width:0.5;" x="488.275" xlink:href="#md36d655d4b" y="345.6"/>
      </g>
     </g>
     <g id="text_5">
      <text style="font-family:Arial;font-size:16.0px;font-style:normal;font-weight:400;text-anchor:middle;" transform="rotate(-0.000000, 488.275000, 361.052500)" x="488.275" y="361.0525">8</text>
     </g>
    </g>
    <g id="text_6">
     <text style="font-family:Arial;font-size:16.0px;font-style:normal;font-weight:400;text-anchor:middle;" transform="rotate(-0.000000, 265.075000, 380.880000)" x="265.075" y="380.88">Time (sec.)</text>
    </g>
   </g>
   <g id="matplotlib.axis_2">
    <g id="ytick_1">
     <g id="line2d_12">
      <defs>
       <path d="M 0 0 
L 4 0 
" id="m6de2f09da0" style="stroke:#000000;stroke-width:0.5;"/>
      </defs>
      <g>
       <use style="stroke:#000000;stroke-width:0.5;" x="41.875" xlink:href="#m6de2f09da0" y="288.0"/>
      </g>
     </g>
     <g id="text_7">
      <text style="font-family:Arial;font-size:16.0px;font-style:normal;font-weight:400;text-anchor:end;" transform="rotate(-0.000000, 37.875000, 292.136250)" x="37.875" y="292.13625">1</text>
     </g>
    </g>
    <g id="ytick_2">
     <g id="line2d_13">
      <g>
       <use style="stroke:#000000;stroke-width:0.5;" x="41.875" xlink:href="#m6de2f09da0" y="172.8"/>
      </g>
     </g>
     <g id="text_8">
      <text style="font-family:Arial;font-size:16.0px;font-style:normal;font-weight:400;text-anchor:end;" transform="rotate(-0.000000, 37.875000, 176.936250)" x="37.875" y="176.93625">0</text>
     </g>
    </g>
    <g id="ytick_3">
     <g id="line2d_14">
      <g>
       <use style="stroke:#000000;stroke-width:0.5;" x="41.875" xlink:href="#m6de2f09da0" y="57.6"/>
      </g>
     </g>
     <g id="text_9">
      <text style="font-family:Arial;font-size:16.0px;font-style:normal;font-weight:400;text-anchor:end;" transform="rotate(-0.000000, 37.875000, 61.736250)" x="37.875" y="61.73625">1</text>
     </g>
    </g>
    <g id="text_10">
     <text style="font-family:Arial;font-size:16.0px;font-style:normal;font-weight:400;text-anchor:middle;" transform="rotate(-90.000000, 11.452500, 172.800000)" x="11.4525" y="172.8">Evidence</text>
    </g>
   </g>
  </g>
 </g>
 <defs>
  <clipPath id="pe77ee84ffe">
   <rect height="345.6" width="446.4" x="41.875" y="-5.68434188608e-14"/>
  </clipPath>
 </defs>
</svg>
